<?xml version="1.0" standalone="no"?>
<!DOCTYPE svg PUBLIC "-//W3C//DTD SVG 20010904//EN"
 "http://www.w3.org/TR/2001/REC-SVG-20010904/DTD/svg10.dtd">
<svg version="1.0" xmlns="http://www.w3.org/2000/svg"
 width="512.000000pt" height="512.000000pt" viewBox="0 0 512.000000 512.000000"
 preserveAspectRatio="xMidYMid meet">
<metadata>
Created by potrace 1.14, written by Peter Selinger 2001-2017
</metadata>
<g transform="translate(0.000000,512.000000) scale(0.100000,-0.100000)"
fill="#000000" stroke="none">
<path d="M3675 5087 c-16 -6 -33 -15 -37 -21 -4 -6 -8 -7 -8 -3 0 13 -56 -30
-107 -82 -55 -55 -134 -165 -164 -229 -13 -26 -27 -50 -33 -54 -6 -4 -8 -8 -3
-8 4 0 0 -15 -10 -32 -9 -18 -16 -39 -15 -45 2 -7 -3 -13 -9 -13 -7 0 -10 -3
-6 -6 3 -4 -1 -23 -9 -43 -18 -46 -61 -249 -59 -278 1 -13 -1 -23 -5 -23 -3 0
-5 -16 -5 -35 1 -19 -3 -35 -8 -35 -5 0 -4 -6 2 -13 6 -8 7 -17 3 -21 -9 -10
-11 -477 -1 -497 4 -8 5 -20 1 -26 -9 -14 -272 -12 -272 2 0 7 -3 7 -8 0 -4
-6 -60 -10 -127 -11 -115 -1 -163 -4 -285 -20 -30 -4 -63 -7 -72 -8 -10 0 -18
-3 -18 -7 0 -4 -8 -6 -17 -4 -10 1 -22 0 -28 -4 -5 -3 -19 -7 -30 -8 -86 -13
-337 -126 -400 -181 -12 -10 -36 -27 -53 -38 -18 -10 -32 -25 -32 -33 0 -8 -3
-12 -6 -9 -6 6 -71 -58 -119 -118 -16 -20 -34 -42 -40 -48 -33 -38 -112 -194
-147 -291 -16 -44 -29 -81 -28 -82 0 -2 0 -4 -1 -5 -2 -8 -8 -37 -13 -68 -4
-19 -9 -48 -13 -65 -4 -16 -7 -37 -8 -45 0 -8 -4 -21 -8 -27 -5 -8 -4 -13 3
-13 6 0 8 -5 4 -12 -26 -41 -35 -596 -10 -636 4 -8 1 -12 -11 -13 -57 -4 -69
-4 -80 5 -8 5 -13 5 -13 -1 0 -6 -15 -8 -32 -6 -45 7 -331 10 -342 4 -6 -2
-33 -5 -60 -6 -44 -1 -89 -6 -201 -21 -11 -1 -20 -3 -20 -4 0 -1 -29 -7 -62
-13 -10 -1 -24 -6 -30 -10 -7 -5 -13 -6 -13 -3 0 3 -24 -2 -53 -11 -28 -8 -57
-16 -63 -17 -7 -1 -19 -8 -28 -15 -9 -7 -16 -10 -16 -7 0 12 -214 -103 -243
-130 -14 -13 -30 -24 -34 -24 -18 0 -128 -120 -139 -152 -48 -131 50 -263 187
-253 26 2 57 10 68 17 20 12 43 -9 349 -312 181 -179 330 -328 330 -331 1 -3
63 -66 138 -140 l135 -135 -15 -29 c-32 -60 -15 -153 36 -202 44 -43 93 -61
151 -58 61 4 102 32 166 110 98 122 184 302 228 475 22 89 23 94 28 120 3 14
7 36 11 50 3 14 7 43 9 65 2 22 4 40 5 40 3 0 9 44 13 96 2 31 7 61 11 67 4 7
2 12 -4 12 -7 0 -8 6 -1 18 7 13 7 22 -1 30 -7 7 -8 16 -2 24 9 12 10 28 4 53
-6 25 -5 41 4 53 5 7 4 12 -3 12 -9 0 -9 5 -1 20 6 11 7 20 3 20 -4 0 -9 40
-10 89 l-2 89 237 -1 c245 -2 412 4 412 14 0 3 10 5 23 6 44 1 113 13 164 27
28 7 54 11 57 8 3 -3 6 0 6 7 0 7 4 9 10 6 5 -3 24 0 42 8 18 8 49 21 68 28
162 60 336 188 455 334 63 77 145 218 145 248 0 8 7 20 15 27 9 7 13 15 10 18
-3 3 0 11 6 19 6 7 9 13 6 13 -4 0 1 19 9 43 9 23 17 51 20 62 2 11 6 30 8 43
3 13 7 31 10 40 4 15 11 51 21 122 11 73 19 259 18 451 l0 216 66 -2 c37 0 72
-4 78 -8 6 -4 14 -3 18 3 3 6 14 7 23 2 9 -4 31 -6 47 -5 39 4 42 4 98 0 28
-2 47 0 47 7 0 6 4 6 12 -2 8 -8 17 -8 31 -1 15 9 18 8 12 -2 -6 -8 -4 -10 6
-4 7 5 43 10 79 11 36 1 88 5 115 9 28 4 64 8 80 10 17 2 30 4 30 5 0 2 9 4
20 6 21 3 48 8 100 21 17 4 33 6 38 5 4 -1 7 2 7 6 0 4 9 9 20 10 43 4 50 6
50 13 0 4 12 10 27 14 34 8 174 77 217 107 43 29 138 108 169 140 97 101 123
219 66 297 -48 67 -148 83 -238 37 l-50 -25 -461 460 c-253 254 -460 462 -460
464 0 1 11 28 26 58 19 42 25 70 23 112 -1 30 -5 55 -9 55 -4 0 -12 10 -19 23
-27 50 -134 78 -206 54z m530 -914 l432 -432 -24 -21 c-13 -11 -24 -19 -26
-18 -1 0 -20 -8 -42 -19 -49 -25 -200 -74 -238 -77 -24 -2 -70 41 -360 330
-182 183 -337 341 -343 351 -7 11 -8 26 -4 34 4 8 13 39 20 69 7 30 17 61 23
68 5 7 10 20 11 30 2 21 46 110 65 134 14 17 16 17 35 0 10 -9 213 -211 451
-449z m-395 -363 c127 -127 230 -232 230 -233 0 -6 -307 0 -317 6 -6 4 -14 3
-18 -3 -4 -6 -11 -8 -16 -4 -6 3 -29 7 -52 9 -23 2 -45 4 -49 4 -4 1 -8 11 -8
24 0 12 -2 113 -6 225 -3 111 -3 202 0 202 3 0 110 -104 236 -230z m-1014
-575 c13 -1 24 1 24 4 0 10 115 7 122 -4 5 -6 8 -6 8 2 0 11 72 9 91 -3 4 -2
10 0 14 6 4 6 11 8 16 4 8 -5 67 -11 140 -13 8 -1 16 -11 16 -23 5 -76 10
-478 6 -478 -2 0 -118 113 -256 251 -188 187 -247 253 -237 259 8 5 18 6 23 3
4 -3 19 -6 33 -8z m48 -386 c330 -330 356 -359 352 -385 -12 -65 -19 -90 -28
-101 -6 -7 -8 -13 -4 -13 4 0 -1 -15 -11 -32 -9 -18 -18 -35 -18 -38 -3 -16
-50 -98 -64 -111 -16 -15 -22 -12 -79 42 -34 33 -62 64 -62 71 0 6 -2 9 -5 6
-3 -3 -738 725 -774 767 -5 6 26 35 37 35 6 0 12 3 14 8 4 10 129 68 140 65 4
-2 8 2 8 7 0 6 3 9 8 8 4 -1 19 2 33 6 14 4 33 8 42 10 9 1 19 4 22 7 3 3 11
6 19 6 7 0 174 -161 370 -358z m56 -849 c-42 -32 -200 -106 -200 -94 0 3 -10
-1 -22 -7 -13 -7 -32 -14 -43 -15 -11 -2 -28 -5 -38 -7 -13 -2 -124 103 -373
352 -319 319 -355 358 -349 381 3 14 6 31 7 38 1 6 5 12 10 12 5 0 7 4 3 9 -3
5 -1 20 4 33 11 27 23 62 22 65 -1 6 72 137 82 148 9 9 119 -95 466 -442 l455
-455 -24 -18z m-806 93 c135 -135 246 -247 246 -249 0 -1 -17 -3 -37 -2 -21 0
-47 -2 -58 -5 -11 -2 -30 0 -42 4 -13 5 -23 5 -23 0 0 -6 -38 -7 -47 -1 -8 5
-81 2 -90 -3 -6 -4 -13 -3 -17 0 -3 4 -37 8 -74 9 -37 1 -76 2 -87 3 -19 1
-20 8 -20 91 0 49 -2 90 -5 90 -10 0 -5 175 5 182 6 5 5 8 -3 8 -9 0 -10 5 -2
19 5 11 6 22 2 25 -7 4 -8 57 -3 74 3 7 31 -19 255 -245z m-674 -594 c0 -3 16
-4 35 -3 38 3 37 5 38 -78 0 -16 4 -28 9 -28 5 0 6 -5 2 -12 -11 -17 -11 -58
-1 -58 4 0 3 -8 -2 -19 -6 -10 -8 -21 -4 -24 8 -9 9 -198 1 -204 -5 -2 -8 1
-8 6 0 6 -7 11 -17 11 -9 0 -14 2 -11 5 6 6 -322 335 -335 335 -4 0 -5 5 -2
10 3 6 -2 10 -11 10 -10 0 -14 3 -11 7 4 3 -2 12 -13 20 -11 8 -20 18 -20 22
0 4 79 7 175 7 96 -1 175 -4 175 -7z m-264 -355 c263 -263 321 -326 319 -345
-3 -26 -10 -59 -20 -99 -4 -14 -8 -32 -9 -40 -1 -8 -8 -25 -14 -37 -7 -13 -10
-23 -6 -23 4 0 -1 -8 -10 -19 -9 -10 -18 -28 -19 -40 -1 -11 -5 -21 -9 -21 -4
0 -8 -6 -8 -14 0 -7 -7 -19 -15 -26 -14 -11 -58 29 -317 288 -165 166 -304
302 -309 302 -5 0 -9 4 -9 8 0 4 -60 68 -134 142 -74 74 -133 138 -130 141 7
12 103 59 119 59 8 0 15 5 15 12 0 6 2 9 5 6 3 -3 40 5 82 18 42 13 79 22 82
19 4 -2 13 0 21 5 9 5 20 4 30 -3 8 -6 160 -156 336 -333z"/>
</g>
</svg>
