<?xml version="1.0" encoding="UTF-8" standalone="no"?>
<!-- Created with Inkscape (http://www.inkscape.org/) -->

<svg
   width="297mm"
   height="210mm"
   viewBox="0 0 297 210"
   version="1.1"
   id="svg1"
   inkscape:version="1.4.2 (ebf0e940d0, 2025-05-08)"
   sodipodi:docname="RE.svg"
   xmlns:inkscape="http://www.inkscape.org/namespaces/inkscape"
   xmlns:sodipodi="http://sodipodi.sourceforge.net/DTD/sodipodi-0.dtd"
   xmlns="http://www.w3.org/2000/svg"
   xmlns:svg="http://www.w3.org/2000/svg">
  <sodipodi:namedview
     id="namedview1"
     pagecolor="#ffffff"
     bordercolor="#000000"
     borderopacity="0.25"
     inkscape:showpageshadow="2"
     inkscape:pageopacity="0.0"
     inkscape:pagecheckerboard="0"
     inkscape:deskcolor="#d1d1d1"
     inkscape:document-units="mm"
     inkscape:zoom="0.72248176"
     inkscape:cx="696.9034"
     inkscape:cy="292.74095"
     inkscape:window-width="1920"
     inkscape:window-height="1012"
     inkscape:window-x="0"
     inkscape:window-y="32"
     inkscape:window-maximized="1"
     inkscape:current-layer="layer1" />
  <defs
     id="defs1">
    <marker
       style="overflow:visible"
       id="ConcaveTriangle-7-6"
       refX="0"
       refY="0"
       orient="auto-start-reverse"
       inkscape:stockid="Concave triangle arrow"
       markerWidth="1"
       markerHeight="1"
       viewBox="0 0 1 1"
       inkscape:isstock="true"
       inkscape:collect="always"
       preserveAspectRatio="xMidYMid">
      <path
         transform="scale(0.7)"
         d="M -2,-4 9,0 -2,4 c 2,-2.33 2,-5.66 0,-8 z"
         style="fill:context-stroke;fill-rule:evenodd;stroke:none"
         id="path7-12-1" />
    </marker>
    <marker
       style="overflow:visible"
       id="ConcaveTriangle-3-9-3"
       refX="0"
       refY="0"
       orient="auto-start-reverse"
       inkscape:stockid="Concave triangle arrow"
       markerWidth="1"
       markerHeight="1"
       viewBox="0 0 1 1"
       inkscape:isstock="true"
       inkscape:collect="always"
       preserveAspectRatio="xMidYMid">
      <path
         transform="scale(0.7)"
         d="M -2,-4 9,0 -2,4 c 2,-2.33 2,-5.66 0,-8 z"
         style="fill:context-stroke;fill-rule:evenodd;stroke:none"
         id="path7-31-4-8" />
    </marker>
    <marker
       style="overflow:visible"
       id="ConcaveTriangle-1-9-9"
       refX="0"
       refY="0"
       orient="auto-start-reverse"
       inkscape:stockid="Concave triangle arrow"
       markerWidth="1"
       markerHeight="1"
       viewBox="0 0 1 1"
       inkscape:isstock="true"
       inkscape:collect="always"
       preserveAspectRatio="xMidYMid">
      <path
         transform="scale(0.7)"
         d="M -2,-4 9,0 -2,4 c 2,-2.33 2,-5.66 0,-8 z"
         style="fill:context-stroke;fill-rule:evenodd;stroke:none"
         id="path7-7-3-3" />
    </marker>
    <marker
       style="overflow:visible"
       id="ConcaveTriangle-2-1-4"
       refX="0"
       refY="0"
       orient="auto-start-reverse"
       inkscape:stockid="Concave triangle arrow"
       markerWidth="1"
       markerHeight="1"
       viewBox="0 0 1 1"
       inkscape:isstock="true"
       inkscape:collect="always"
       preserveAspectRatio="xMidYMid">
      <path
         transform="scale(0.7)"
         d="M -2,-4 9,0 -2,4 c 2,-2.33 2,-5.66 0,-8 z"
         style="fill:context-stroke;fill-rule:evenodd;stroke:none"
         id="path7-2-4-4" />
    </marker>
    <marker
       style="overflow:visible"
       id="ConcaveTriangle-33-1-6"
       refX="0"
       refY="0"
       orient="auto-start-reverse"
       inkscape:stockid="Concave triangle arrow"
       markerWidth="1"
       markerHeight="1"
       viewBox="0 0 1 1"
       inkscape:isstock="true"
       inkscape:collect="always"
       preserveAspectRatio="xMidYMid">
      <path
         transform="scale(0.7)"
         d="M -2,-4 9,0 -2,4 c 2,-2.33 2,-5.66 0,-8 z"
         style="fill:context-stroke;fill-rule:evenodd;stroke:none"
         id="path7-1-4-0" />
    </marker>
  </defs>
  <g
     inkscape:label="Layer 1"
     inkscape:groupmode="layer"
     id="layer1">
    <g
       inkscape:label="Layer 1"
       id="layer1-5"
       transform="matrix(1.478601,0,0,1.478601,-140.17241,-94.820979)">
      <g
         transform="matrix(0.18083761,0,0,0.18083761,-32.674858,-4.5976891)"
         id="g2896"
         style="display:inline">
        <text
           xml:space="preserve"
           style="font-style:normal;font-weight:normal;font-size:32px;line-height:1.25;font-family:sans-serif;fill:#ffffff;fill-opacity:1;stroke:none"
           x="1118.1243"
           y="1080.05"
           id="text2870"><tspan
             sodipodi:role="line"
             id="tspan2868"
             x="1118.1243"
             y="1080.05"
             style="font-style:normal;font-variant:normal;font-weight:normal;font-stretch:normal;font-size:32px;font-family:'Courier New';-inkscape-font-specification:'Courier New';fill:#ffffff;fill-opacity:1" /></text>
        <text
           xml:space="preserve"
           style="font-style:normal;font-variant:normal;font-weight:normal;font-stretch:normal;font-size:17.5572px;font-family:'Ubuntu Mono';-inkscape-font-specification:'Ubuntu Mono';fill:#c8c4b7;stroke-width:1.4631"
           x="1601.5372"
           y="1124.722"
           id="text3891"><tspan
             sodipodi:role="line"
             id="tspan3889"
             style="font-style:normal;font-variant:normal;font-weight:normal;font-stretch:normal;font-family:'Ubuntu Mono';-inkscape-font-specification:'Ubuntu Mono';fill:#808080;stroke-width:1.4631"
             x="1601.5372"
             y="1124.722">Krishnawa.github.io</tspan></text>
      </g>
      <g
         id="g2630"
         transform="matrix(0.26458333,0,0,0.26458333,254.96424,182.92959)"
         style="display:inline">
        <path
           id="path3817_5_"
           nodetypes="ccccccc"
           d="M 3.4083297,0.45268464 116.76243,0.65404185 c 1.58383,0 2.99881,-0.23483394 2.99881,3.16052515 l -0.13878,37.329077 H 0.54733418 V 3.675801 c 0,-1.6743929 0.16206577,-3.22311636 2.86099552,-3.22311636 z"
           style="fill:#aab2ab" />
        <path
           d="M 117.7533,-1.417352e-6 H 2.2476335 C 1.0083193,-1.417352e-6 -2.0408688e-5,1.0082254 -2.0408688e-5,2.2469141 V 41.492978 c 0,0.279957 0.227098788688,0.50702 0.507563608688,0.50702 H 119.49241 c 0.28048,0 0.50757,-0.227073 0.50757,-0.50702 V 2.2469141 c 0,-1.2386887 -1.00834,-2.246915517352 -2.24668,-2.246915517352 z M 2.2476335,1.0150221 H 117.75331 c 0.67933,0 1.23155,0.5526294 1.23155,1.2319019 0,0 0,15.796336 0,27.220625 H 36.428267 c -3.025983,5.471006 -8.856684,9.185621 -15.547234,9.185621 -6.692497,0 -12.5212501,-3.711217 -15.5452952,-9.185621 H 1.0151167 c 0,-11.424289 0,-27.220625 0,-27.220625 -9.9e-6,-0.6792725 0.5531682,-1.2319019 1.2325168,-1.2319019 z"
           id="path120" />
        <g
           id="g5908_5_"
           transform="matrix(0.8674921,0,0,0.8673951,-387.30972,67.870882)">
          <path
             id="path5906_5_"
             cx="296.35416"
             ry="22.939548"
             cy="264.3577"
             type="arc"
             rx="22.939548"
             d="m 486.26599,-55.7066 c 0.006,8.68079 -7.02789,15.7215 -15.70813,15.72708 -8.68018,0.0056 -15.7215,-7.02786 -15.72705,-15.7081 0,-0.0067 0,-0.01227 0,-0.01898 -0.006,-8.68079 7.02783,-15.7215 15.70807,-15.72711 8.68134,-0.005 15.7226,7.02783 15.72711,15.70807 0,0.0062 0,0.01287 0,0.01904 z"
             style="fill:#ffffff" />
          <g
             id="g5706_5_"
             transform="translate(-289.6157,99.0653)">
            <path
               id="path5708_5_"
               d="m 772.94165,-167.5741 c 3.48486,3.48541 5.22778,7.75336 5.22778,12.80219 0,5.04938 -1.71277,9.27203 -5.13831,12.66794 -3.63586,3.57602 -7.93176,5.36374 -12.89001,5.36374 -4.89783,0 -9.11987,-1.77264 -12.66394,-5.31955 -3.54639,-3.54526 -5.31848,-7.78244 -5.31848,-12.71213 0,-4.92859 1.77209,-9.19598 5.31848,-12.80219 3.45459,-3.48651 7.67664,-5.22949 12.66394,-5.22949 5.04883,0 9.31458,1.74298 12.80054,5.22949 z m -23.11853,2.34485 c -2.94678,2.97638 -4.42017,6.46289 -4.42017,10.46179 0,3.9989 1.45886,7.45581 4.37427,10.37122 2.9176,2.9165 6.38904,4.37476 10.4176,4.37476 4.02856,0 7.53015,-1.47281 10.50708,-4.41895 2.82593,-2.73645 4.23889,-6.17767 4.23889,-10.32703 0,-4.11749 -1.4364,-7.61292 -4.30823,-10.48419 -2.87061,-2.87061 -6.34985,-4.30652 -10.43774,-4.30652 -4.08789,0 -7.54699,1.44318 -10.3717,4.32892 z m 7.75391,8.70319 c -0.44971,-0.98169 -1.12317,-1.47284 -2.02271,-1.47284 -1.58862,0 -2.38293,1.07007 -2.38293,3.20911 0,2.13953 0.79431,3.2085 2.38293,3.2085 1.04944,0 1.79895,-0.52075 2.24866,-1.56458 l 2.20276,1.17303 c -1.05042,1.86548 -2.62561,2.79901 -4.72546,2.79901 -1.62,0 -2.91772,-0.4967 -3.89209,-1.48956 -0.97546,-0.99341 -1.46326,-2.36334 -1.46326,-4.10852 0,-1.71503 0.50342,-3.07654 1.50806,-4.08502 1.00452,-1.00854 2.25757,-1.51257 3.75781,-1.51257 2.22058,0 3.8092,0.87488 4.77136,2.62286 z m 10.36389,0 c -0.45081,-0.98169 -1.11206,-1.47284 -1.98242,-1.47284 -1.62097,0 -2.43213,1.07007 -2.43213,3.20911 0,2.13953 0.81116,3.2085 2.43213,3.2085 1.05164,0 1.78772,-0.52075 2.20728,-1.56458 l 2.25195,1.17303 c -1.04822,1.86548 -2.62109,2.79901 -4.71765,2.79901 -1.61768,0 -2.91199,-0.4967 -3.88647,-1.48956 -0.97217,-0.99341 -1.45996,-2.36334 -1.45996,-4.10852 0,-1.71503 0.49451,-3.07654 1.48352,-4.08502 0.98779,-1.00854 2.24524,-1.51257 3.77344,-1.51257 2.21619,0 3.80371,0.87488 4.76135,2.62286 z" />
          </g>
        </g>
        <g
           transform="matrix(0.9937808,0,0,0.9936696,-437.12334,-74.436914)"
           id="g126">
          <circle
             cx="491.94629"
             cy="90.231934"
             r="10.80615"
             id="circle128"
             style="fill:#ffffff" />
          <g
             id="g130">
            <path
               d="m 495.07373,87.10498 c 0,-0.4165 -0.33789,-0.75391 -0.75391,-0.75391 h -4.77246 c -0.41602,0 -0.75391,0.3374 -0.75391,0.75391 v 4.77295 h 1.33105 v 5.65186 h 3.61719 v -5.65186 h 1.33203 v -4.77295 z"
               id="path132" />
            <circle
               cx="491.93359"
               cy="84.090332"
               r="1.63232"
               id="circle134" />
          </g>
          <path
             clip-rule="evenodd"
             d="m 491.91846,78.3252 c -3.23145,0 -5.96777,1.12793 -8.20703,3.38379 -2.29785,2.3335 -3.44629,5.0957 -3.44629,8.28467 0,3.18897 1.14844,5.93164 3.44629,8.22705 2.29785,2.29395 5.03418,3.44189 8.20703,3.44189 3.21289,0 5.99805,-1.15674 8.35449,-3.47168 2.21973,-2.19727 3.3291,-4.92969 3.3291,-8.19727 0,-3.26758 -1.12891,-6.02881 -3.3877,-8.28467 -2.25879,-2.25586 -5.02343,-3.38378 -8.29589,-3.38378 z m 0.0303,2.0996 c 2.64844,0 4.89648,0.93408 6.74609,2.80127 1.87012,1.84717 2.80469,4.10352 2.80469,6.76758 0,2.68359 -0.91504,4.91064 -2.74609,6.68066 -1.92773,1.90576 -4.19629,2.8584 -6.80469,2.8584 -2.61035,0 -4.85938,-0.94287 -6.74805,-2.82959 -1.88867,-1.88623 -2.83301,-4.12256 -2.83301,-6.70947 0,-2.58691 0.9541,-4.84229 2.8623,-6.76758 1.83107,-1.86718 4.07032,-2.80127 6.71876,-2.80127 z"
             id="path136"
             style="fill-rule:evenodd" />
        </g>
        <g
           transform="matrix(0.9937808,0,0,0.9936696,-437.12334,-74.436914)"
           enable-background="new    "
           id="g138">
          <path
             d="m 488.56299,107.86719 c 0.31738,0 0.60742,0.0283 0.86914,0.084 0.26172,0.0557 0.48633,0.14746 0.67383,0.27539 0.18652,0.12695 0.33105,0.29688 0.43457,0.50781 0.10254,0.21191 0.1543,0.47266 0.1543,0.78418 0,0.33594 -0.0762,0.61523 -0.22949,0.83887 -0.15234,0.22461 -0.37891,0.40723 -0.67773,0.55078 0.41211,0.11816 0.71973,0.3252 0.92285,0.62109 0.20312,0.29589 0.30469,0.65234 0.30469,1.06934 0,0.33594 -0.0654,0.62695 -0.19629,0.87305 -0.13086,0.24512 -0.30762,0.44629 -0.5293,0.60156 -0.2207,0.15625 -0.47363,0.27148 -0.75684,0.3457 -0.28418,0.0752 -0.5752,0.1123 -0.875,0.1123 h -3.23633 v -6.66406 h 3.1416 z m -0.1875,2.69531 c 0.26172,0 0.47656,-0.0625 0.64453,-0.18652 0.16895,-0.12402 0.25293,-0.3252 0.25293,-0.60449 0,-0.15527 -0.0283,-0.2832 -0.084,-0.38184 -0.0566,-0.0996 -0.13086,-0.17676 -0.22461,-0.2334 -0.0937,-0.0557 -0.20117,-0.0947 -0.32227,-0.11621 -0.12207,-0.0215 -0.24805,-0.0322 -0.37891,-0.0322 h -1.37305 v 1.55469 z m 0.0859,2.82812 c 0.14355,0 0.28027,-0.0137 0.41113,-0.042 0.13086,-0.0283 0.24609,-0.0752 0.34668,-0.13965 0.0996,-0.0654 0.17871,-0.1543 0.23828,-0.2666 0.0586,-0.11133 0.0889,-0.25488 0.0889,-0.42871 0,-0.3418 -0.0967,-0.58594 -0.29004,-0.73242 -0.19336,-0.14551 -0.44922,-0.21875 -0.7666,-0.21875 h -1.59961 v 1.82812 z"
             id="path140"
             style="fill:#ffffff" />
          <path
             d="m 491.27393,107.86719 h 1.64258 l 1.56055,2.63184 1.55176,-2.63184 h 1.63379 l -2.47461,4.10645 v 2.55762 h -1.46875 v -2.59473 z"
             id="path142"
             style="fill:#ffffff" />
        </g>
        <g
           transform="matrix(0.9937808,0,0,0.9936696,-437.12334,-74.436914)"
           enable-background="new    "
           id="g144">
          <path
             d="m 538.91553,112.88379 c 0.0811,0.15527 0.1875,0.28125 0.32129,0.37793 0.13379,0.0967 0.29004,0.16797 0.4707,0.21484 0.17969,0.0469 0.36523,0.0703 0.55859,0.0703 0.12988,0 0.26953,-0.0107 0.41895,-0.0332 0.14844,-0.0215 0.28809,-0.0635 0.41895,-0.12598 0.12988,-0.0615 0.23828,-0.14746 0.32617,-0.25684 0.0859,-0.1084 0.12988,-0.24707 0.12988,-0.41504 0,-0.18066 -0.0576,-0.32617 -0.17285,-0.43848 -0.11426,-0.1123 -0.26562,-0.20508 -0.45117,-0.28027 -0.18652,-0.0742 -0.39844,-0.13965 -0.63379,-0.19629 -0.23633,-0.0557 -0.47559,-0.11816 -0.71777,-0.18652 -0.24902,-0.0625 -0.49121,-0.13867 -0.72754,-0.22852 -0.23535,-0.0898 -0.44727,-0.20703 -0.63379,-0.35059 -0.18555,-0.14258 -0.33691,-0.32129 -0.45117,-0.53613 -0.11523,-0.21484 -0.17285,-0.47461 -0.17285,-0.7793 0,-0.34277 0.0732,-0.63965 0.21875,-0.8916 0.14648,-0.25195 0.33789,-0.46191 0.57324,-0.63086 0.23633,-0.16797 0.50391,-0.29199 0.80273,-0.37305 0.29785,-0.0811 0.59668,-0.12109 0.89453,-0.12109 0.34863,0 0.68262,0.0391 1.00293,0.11719 0.31934,0.0772 0.60449,0.2041 0.85254,0.37793 0.24902,0.1748 0.44629,0.39746 0.59277,0.66797 0.14551,0.27148 0.21875,0.59961 0.21875,0.98535 h -1.42188 c -0.0127,-0.19922 -0.0537,-0.36426 -0.125,-0.49414 -0.0713,-0.13086 -0.16602,-0.2334 -0.28418,-0.30859 -0.11719,-0.0742 -0.25195,-0.12793 -0.40332,-0.1582 -0.15137,-0.0312 -0.31738,-0.0469 -0.49707,-0.0469 -0.11719,0 -0.23535,0.0127 -0.35254,0.0371 -0.11816,0.0254 -0.22461,0.0684 -0.32031,0.13086 -0.0967,0.0625 -0.1748,0.13965 -0.2373,0.2334 -0.0615,0.0937 -0.0928,0.21191 -0.0928,0.35449 0,0.13086 0.0244,0.2373 0.0742,0.31738 0.0498,0.0811 0.14746,0.15625 0.29395,0.22461 0.14649,0.0684 0.34766,0.13672 0.60547,0.20508 0.25781,0.0684 0.5957,0.15625 1.01172,0.26172 0.12402,0.0244 0.29688,0.0703 0.5166,0.13574 0.2207,0.0654 0.44043,0.16895 0.65723,0.3125 0.21777,0.14355 0.40527,0.33496 0.56445,0.57422 0.1582,0.23926 0.2373,0.5459 0.2373,0.91992 0,0.30469 -0.0596,0.58789 -0.17773,0.84961 -0.11816,0.26172 -0.29395,0.4873 -0.52734,0.67676 -0.2334,0.19043 -0.52246,0.33789 -0.86816,0.44336 -0.34473,0.10645 -0.74414,0.15918 -1.19922,0.15918 -0.36719,0 -0.72266,-0.0459 -1.06836,-0.13574 -0.3457,-0.0908 -0.65039,-0.23242 -0.91406,-0.42578 -0.26465,-0.19336 -0.47461,-0.44043 -0.63086,-0.73926 -0.15527,-0.29883 -0.23047,-0.65332 -0.22363,-1.06445 h 1.42188 c -3e-5,0.22364 0.04,0.41407 0.12107,0.56934 z"
             id="path146"
             style="fill:#ffffff" />
          <path
             d="m 547.17236,107.86719 2.49219,6.66406 h -1.52148 l -0.50391,-1.48438 h -2.49219 l -0.52344,1.48438 h -1.47461 l 2.52051,-6.66406 z m 0.084,4.08593 -0.83984,-2.44336 h -0.0195 l -0.86719,2.44336 z"
             id="path148"
             style="fill:#ffffff" />
        </g>
        <g
           transform="matrix(0.9937808,0,0,0.9936696,-437.12334,-74.436914)"
           enable-background="new    "
           id="g150">
          <path
             d="m 512.83057,107.86719 2.78418,4.4707 h 0.0156 v -4.4707 h 1.375 v 6.66406 h -1.46582 l -2.77344,-4.46191 h -0.0186 v 4.46191 h -1.375 v -6.66406 z"
             id="path152"
             style="fill:#ffffff" />
          <path
             d="m 522.56885,109.64258 c -0.0869,-0.14062 -0.19629,-0.26367 -0.32715,-0.36914 -0.13086,-0.10547 -0.27832,-0.18848 -0.44336,-0.24707 -0.16504,-0.0596 -0.33789,-0.0889 -0.51758,-0.0889 -0.33008,0 -0.61035,0.0635 -0.84082,0.19141 -0.23047,0.12695 -0.41699,0.29785 -0.55957,0.5127 -0.14355,0.21484 -0.24805,0.45898 -0.31348,0.73242 -0.0654,0.27344 -0.0977,0.55664 -0.0977,0.84863 0,0.28027 0.0322,0.55273 0.0977,0.81641 0.0654,0.26465 0.16992,0.50293 0.31348,0.71387 0.14258,0.21191 0.3291,0.38086 0.55957,0.50879 0.23047,0.12793 0.51074,0.19141 0.84082,0.19141 0.44727,0 0.79785,-0.13672 1.0498,-0.41113 0.25195,-0.27344 0.40625,-0.63477 0.46191,-1.08301 h 1.41895 c -0.0371,0.41699 -0.13379,0.79395 -0.28906,1.12988 -0.15527,0.33691 -0.36133,0.62305 -0.61621,0.86035 -0.25488,0.2373 -0.55371,0.41797 -0.89648,0.54297 -0.3418,0.125 -0.71875,0.1875 -1.12891,0.1875 -0.51074,0 -0.96973,-0.0889 -1.37793,-0.2666 -0.40723,-0.17676 -0.75195,-0.42188 -1.03223,-0.73242 -0.28027,-0.31152 -0.49609,-0.67773 -0.64551,-1.09766 -0.14941,-0.4209 -0.22461,-0.87305 -0.22461,-1.35938 0,-0.49805 0.0752,-0.95996 0.22461,-1.38672 0.14941,-0.42676 0.36523,-0.79883 0.64551,-1.11621 0.28028,-0.31738 0.625,-0.56641 1.03223,-0.74707 0.4082,-0.18066 0.86719,-0.27051 1.37793,-0.27051 0.36719,0 0.71387,0.0527 1.04004,0.15918 0.32715,0.10547 0.62012,0.25977 0.87793,0.46289 0.25879,0.20215 0.47168,0.45312 0.63965,0.75195 0.16797,0.29883 0.27344,0.6416 0.31738,1.02734 h -1.41895 c -0.0254,-0.16797 -0.0811,-0.32226 -0.16796,-0.46191 z"
             id="path154"
             style="fill:#ffffff" />
        </g>
        <g
           id="g6332_1_"
           transform="matrix(0.621108,0,0,0.6210385,-285.77182,240.48957)">
          <path
             id="path6334_1_"
             cx="475.97119"
             ry="29.209877"
             cy="252.08646"
             type="arc"
             rx="29.209877"
             d="m 644.57642,-363.11569 c 0.008,9.4118 -7.61731,17.04779 -17.02979,17.05481 -9.4126,0.005 -17.047,-7.61725 -17.05493,-17.03137 0,-0.007 0,-0.0164 0,-0.0234 -0.006,-9.4118 7.6189,-17.04779 17.02991,-17.05481 9.4126,-0.007 17.047,7.61804 17.05481,17.02905 0,0.009 0,0.0164 0,0.0258 z"
             style="fill:#ffffff" />
          <g
             id="g6336_1_"
             transform="translate(-23.9521,-89.72962)">
            <path
               id="path6338_1_"
               d="m 651.36426,-292.05655 c -5.17188,0 -9.55005,1.80548 -13.13135,5.41333 -3.67651,3.73444 -5.51562,8.15399 -5.51562,13.25714 0,5.10315 1.83911,9.48993 5.51562,13.1626 3.67505,3.67194 8.05322,5.50787 13.13135,5.50787 5.14075,0 9.59546,-1.85236 13.36572,-5.55396 3.55164,-3.51721 5.32825,-7.88916 5.32825,-13.11652 0,-5.22742 -1.80627,-9.64697 -5.422,-13.25714 -3.61401,-3.60784 -8.03748,-5.41332 -13.27197,-5.41332 z m 0.0469,3.36096 c 4.23755,0 7.83447,1.49298 10.79541,4.48132 2.99072,2.95544 4.48596,6.56329 4.48596,10.82819 0,4.29376 -1.46399,7.85632 -4.3938,10.68994 -3.08276,3.04846 -6.71411,4.57269 -10.88757,4.57269 -4.17505,0 -7.77344,-1.5094 -10.79541,-4.5274 -3.02185,-3.01874 -4.53284,-6.59613 -4.53284,-10.73523 0,-4.1391 1.52502,-7.74847 4.57971,-10.82819 2.92823,-2.98834 6.51099,-4.48132 10.74854,-4.48132 z" />
            <path
               id="path6340_1_"
               d="m 643.08923,-276.02048 c 0.74377,-4.69849 4.05005,-7.20941 8.19543,-7.20941 5.95935,0 9.59216,4.32501 9.59216,10.09222 0,5.62817 -3.8656,9.99854 -9.68604,9.99854 -4.00464,0 -7.59058,-2.46332 -8.24219,-7.30084 h 4.70312 c 0.14062,2.51099 1.77039,3.39532 4.09851,3.39532 2.6532,0 4.37659,-2.46484 4.37659,-6.23206 0,-3.95471 -1.48901,-6.04614 -4.28442,-6.04614 -2.04846,0 -3.81726,0.74451 -4.19067,3.30237 l 1.36719,-0.009 -3.70154,3.70319 -3.70166,-3.70319 z" />
          </g>
        </g>
        <g
           transform="translate(4.972327e-4,0.00962355)"
           id="g2366">
          <path
             id="path6372_1_"
             cx="475.97119"
             ry="29.209877"
             cy="252.08646"
             type="arc"
             rx="29.209877"
             d="m 87.801399,14.981221 c 0.0048,5.500587 -4.451603,9.961917 -9.953251,9.966304 -5.500714,0.0034 -9.962985,-4.45211 -9.966848,-9.951763 0,-0.0058 0,-0.01019 0,-0.01454 -0.0039,-5.5010765 4.452572,-9.9624055 9.953251,-9.9667814 5.50068,-0.00341 9.96295,4.4521099 9.966848,9.9517284 0,0.0049 0,0.01019 0,0.01505 z"
             style="fill:#ffffff" />
          <path
             id="path45"
             d="m 86.070369,6.7455646 c -2.24512,-2.242292 -4.99278,-3.362732 -8.24368,-3.362732 -3.21268,0 -5.93132,1.12044 -8.15662,3.362732 -2.28405,2.319442 -3.42502,5.0635624 -3.42502,8.2337704 0,3.169502 1.14097,5.89522 3.42502,8.175023 2.28334,2.28122 5.00198,3.421479 8.15662,3.421479 3.19286,0 5.96033,-1.150166 8.30171,-3.449789 2.2062,-2.184252 3.30965,-4.900058 3.30965,-8.146713 0,-3.247361 -1.12256,-5.9921884 -3.36768,-8.2337704 z m -1.45169,14.8728804 c -1.916,1.894056 -4.17032,2.840378 -6.76297,2.840378 -2.59336,0 -4.82858,-0.93712 -6.70565,-2.812068 -1.87707,-1.874948 -2.8156,-4.097421 -2.8156,-6.667423 0,-1.087172 0.17164,-2.114891 0.51103,-3.083862 l 3.07288,1.360027 h -0.22154 v 1.378074 h 1.08753 c 0,0.194644 -0.01946,0.388581 -0.01946,0.582514 v 0.33054 h -1.06807 v 1.378074 h 1.262 c 0.17482,1.029132 0.56305,1.863623 1.08717,2.523993 1.08717,1.436821 2.83436,2.213272 4.73692,2.213272 1.24288,0 2.36828,-0.368761 3.02865,-0.738229 l -0.46644,-2.154525 c -0.40769,0.213752 -1.31933,0.504658 -2.21257,0.504658 -0.97109,0 -1.88308,-0.290902 -2.50452,-0.990204 -0.29126,-0.329833 -0.50466,-0.776451 -0.6402,-1.358965 h 4.22057 l 5.99714,2.654584 c -0.41547,0.736114 -0.94277,1.416303 -1.58687,2.039162 z m -7.54225,-6.071813 -0.02548,-0.01946 0.04388,0.01946 z m 3.61045,-0.913054 h 0.17342 v -1.378074 h -3.287 l -1.33525,-0.591008 c 0.11501,-0.258345 0.25091,-0.489441 0.40945,-0.670281 0.60198,-0.738937 1.45594,-1.048951 2.3881,-1.048951 0.85431,0 1.64987,0.251974 2.15453,0.46573 l 0.54358,-2.2132724 c -0.6993,-0.310015 -1.72773,-0.581808 -2.91187,-0.581808 -1.82469,0 -3.37794,0.737523 -4.48458,1.9797014 -0.2456,0.283824 -0.45865,0.602333 -0.65188,0.939244 l -3.8136,-1.6877374 c 0.36947,-0.554204 0.80406,-1.086465 1.3073,-1.593953 1.81974,-1.855836 4.04434,-2.783755 6.67662,-2.783755 2.63158,0 4.8668,0.927919 6.70565,2.783755 1.85725,1.8360194 2.78588,4.0776014 2.78588,6.7261704 0,0.872709 -0.0991,1.695876 -0.29445,2.471617 z" />
        </g>
      </g>
    </g>
    <path
       style="fill:none;stroke:#168c02;stroke-width:0.8;stroke-miterlimit:3.7;stroke-dasharray:none;stroke-dashoffset:17.5748;stroke-opacity:1"
       d="m 51.712467,115.6123 v -0.47354 c 0,0 1.73999,0.3276 5.86265,0.3276 h 37.44048"
       id="path14-9"
       sodipodi:nodetypes="ccsc" />
    <text
       xml:space="preserve"
       style="font-size:2.82223px;line-height:1;font-family:Arial;-inkscape-font-specification:Arial;text-align:center;letter-spacing:0.267229px;word-spacing:0.0105833px;writing-mode:lr-tb;direction:ltr;text-anchor:middle;fill:#8033bd;fill-opacity:1;stroke:#8033bd;stroke-width:0.2;stroke-miterlimit:3.7;stroke-dasharray:none;stroke-dashoffset:0;stroke-opacity:1"
       x="43.767715"
       y="116.90195"
       id="text52-9"><tspan
         sodipodi:role="line"
         id="tspan52-4"
         style="fill:#000000;fill-opacity:1;stroke:#000000;stroke-width:0.2;stroke-dasharray:none;stroke-opacity:1"
         x="43.901329"
         y="116.90195">I/P</tspan></text>
    <rect
       style="fill:#e56161;fill-opacity:0.515419;stroke:#000000;stroke-width:0.799999;stroke-miterlimit:3.7;stroke-dashoffset:17.5748"
       id="rect4-0"
       width="44.372894"
       height="15.184838"
       x="4.019731"
       y="108.22718"
       ry="0" />
    <rect
       style="fill:none;stroke:#000000;stroke-width:0.799999;stroke-miterlimit:3.7;stroke-dashoffset:17.5748"
       id="rect9-5"
       width="3.3198395"
       height="3.8856981"
       x="48.392624"
       y="113.66946" />
    <text
       xml:space="preserve"
       style="font-size:2.82223px;line-height:1;font-family:Arial;-inkscape-font-specification:Arial;text-align:center;letter-spacing:0.267229px;word-spacing:0.0105833px;writing-mode:lr-tb;direction:ltr;text-anchor:middle;fill:#8033bd;fill-opacity:1;stroke:#8033bd;stroke-width:0.2;stroke-miterlimit:3.7;stroke-dasharray:none;stroke-dashoffset:0;stroke-opacity:1"
       x="25.028353"
       y="114.00748"
       id="text5-5-8-1-1-8-7"><tspan
         sodipodi:role="line"
         id="tspan5-1-7-5-4-6-1"
         style="fill:#000000;fill-opacity:1;stroke:#000000;stroke-width:0.2;stroke-dasharray:none;stroke-opacity:1"
         x="25.028351"
         y="114.00748">SPECTRUM ANALYZER</tspan><tspan
         sodipodi:role="line"
         style="fill:#000000;fill-opacity:1;stroke:#000000;stroke-width:0.2;stroke-dasharray:none;stroke-opacity:1"
         x="25.028353"
         y="116.82971"
         id="tspan57">OR</tspan><tspan
         sodipodi:role="line"
         style="fill:#000000;fill-opacity:1;stroke:#000000;stroke-width:0.2;stroke-dasharray:none;stroke-opacity:1"
         x="25.161966"
         y="119.65195"
         id="tspan58">EMI RECECIVER</tspan></text>
    <path
       style="fill:#918a6f;fill-opacity:1;stroke:#6e6e6e;stroke-width:0.2;stroke-miterlimit:3.7;stroke-dasharray:1.6, 0.2;stroke-dashoffset:0;stroke-opacity:1;marker-end:url(#ConcaveTriangle-7-6)"
       d="M 249.58473,116.6364 H 263.4927"
       id="path5-0-6" />
    <path
       style="fill:#b1b1b1;fill-opacity:1;stroke:#000000;stroke-width:0.2;stroke-miterlimit:3.7;stroke-dasharray:none;stroke-dashoffset:17.5748"
       d="m 215.37594,51.346658 -4.2098,7.29158 h 8.41959 l -4.20979,7.29158 h 8.41959 l -4.2098,7.29158 h 8.41959 l -4.20979,7.29158 h 8.41959 l -4.2098,7.29157 h 8.41959 l -4.20979,7.29158 h 8.41959 l -4.2098,7.291582 h 8.41959 l -4.20979,7.29157 h 8.41958 l -5.3378,5.33781 9.3545,1.61932 v 0"
       id="path4-4-1" />
    <path
       style="fill:#b1b1b1;fill-opacity:1;stroke:#000000;stroke-width:0.2;stroke-miterlimit:3.7;stroke-dasharray:none;stroke-dashoffset:17.5748"
       d="M 102.2908,115.46635 222.04686,62.901048"
       id="path8-8-8" />
    <rect
       style="fill:#63e1ff;fill-opacity:1;stroke:#000000;stroke-width:0.302975;stroke-miterlimit:3.7;stroke-dasharray:none;stroke-dashoffset:17.5748"
       id="rect3-7-4"
       width="2.0226107"
       height="7.9218917"
       x="146.8154"
       y="-177.22476"
       transform="rotate(65.984114)" />
    <path
       style="fill:#63e1ff;fill-opacity:1;stroke:#6e6e6e;stroke-width:0.2;stroke-miterlimit:3.7;stroke-dasharray:1.6, 0.2;stroke-dashoffset:0;stroke-opacity:1;marker-end:url(#ConcaveTriangle-7-6)"
       d="M 102.2908,116.6364 V 54.398148"
       id="path9-3-9" />
    <text
       xml:space="preserve"
       style="font-size:2.82223px;line-height:1;font-family:Arial;-inkscape-font-specification:Arial;text-align:center;letter-spacing:0.267229px;word-spacing:0.0105833px;writing-mode:lr-tb;direction:ltr;text-anchor:middle;fill:#8033bd;fill-opacity:1;stroke:#8033bd;stroke-width:0.2;stroke-miterlimit:3.7;stroke-dasharray:none;stroke-dashoffset:0;stroke-opacity:1"
       x="99.972084"
       y="58.549408"
       id="text5-2-6"><tspan
         sodipodi:role="line"
         id="tspan5-82-3"
         style="fill:#8033bd;fill-opacity:1;stroke:#8033bd;stroke-width:0.2;stroke-dasharray:none;stroke-opacity:1"
         x="100.1057"
         y="58.549408">Y</tspan></text>
    <text
       xml:space="preserve"
       style="font-size:2.82223px;line-height:1;font-family:Arial;-inkscape-font-specification:Arial;text-align:center;letter-spacing:0.267229px;word-spacing:0.0105833px;writing-mode:lr-tb;direction:ltr;text-anchor:middle;fill:#8033bd;fill-opacity:1;stroke:#8033bd;stroke-width:0.2;stroke-miterlimit:3.7;stroke-dasharray:none;stroke-dashoffset:0;stroke-opacity:1"
       x="260.96216"
       y="116.07641"
       id="text5-8-3-7"><tspan
         sodipodi:role="line"
         id="tspan5-8-9-8"
         style="fill:#8033bd;fill-opacity:1;stroke:#8033bd;stroke-width:0.2;stroke-dasharray:none;stroke-opacity:1"
         x="261.09576"
         y="116.07641">Z</tspan></text>
    <path
       style="fill:#33bd8e;fill-opacity:0.337349;stroke:#000000;stroke-width:0.2;stroke-miterlimit:3.7;stroke-dasharray:none;stroke-dashoffset:0;stroke-opacity:1"
       d="m 121.33473,113.89631 h 95.28672 V 73.985308 Z"
       id="path10-8-8" />
    <rect
       style="fill:#ff7f2a;fill-opacity:0.337349;stroke:#000000;stroke-width:0.2;stroke-miterlimit:3.7;stroke-dasharray:none;stroke-dashoffset:0;stroke-opacity:1"
       id="rect6-5-2"
       width="25.442308"
       height="6.9725275"
       x="185.45062"
       y="93.865494" />
    <text
       xml:space="preserve"
       style="font-size:2.82223px;line-height:1;font-family:Arial;-inkscape-font-specification:Arial;text-align:center;letter-spacing:0.267229px;word-spacing:0.0105833px;writing-mode:lr-tb;direction:ltr;text-anchor:middle;fill:#8033bd;fill-opacity:1;stroke:#8033bd;stroke-width:0.2;stroke-miterlimit:3.7;stroke-dasharray:none;stroke-dashoffset:0;stroke-opacity:1"
       x="196.73547"
       y="98.554428"
       id="text5-5-0-9"><tspan
         sodipodi:role="line"
         id="tspan5-1-83-1"
         style="fill:#000000;fill-opacity:1;stroke:#000000;stroke-width:0.2;stroke-dasharray:none;stroke-opacity:1"
         x="196.86909"
         y="98.554428">EUT</tspan></text>
    <rect
       style="fill:#ffd42a;fill-opacity:1;stroke:#000000;stroke-width:0.2;stroke-miterlimit:3.7;stroke-dasharray:none;stroke-dashoffset:0;stroke-opacity:1"
       id="rect7-5-3"
       width="29.818682"
       height="15.947802"
       x="262.42017"
       y="125.38915" />
    <text
       xml:space="preserve"
       style="font-size:2.82223px;line-height:1;font-family:Arial;-inkscape-font-specification:Arial;text-align:center;letter-spacing:0.267229px;word-spacing:0.0105833px;writing-mode:lr-tb;direction:ltr;text-anchor:middle;fill:#8033bd;fill-opacity:1;stroke:#8033bd;stroke-width:0.2;stroke-miterlimit:3.7;stroke-dasharray:none;stroke-dashoffset:0;stroke-opacity:1"
       x="277.23166"
       y="130.47632"
       id="text5-5-5-1-5"><tspan
         sodipodi:role="line"
         id="tspan5-1-2-5-9"
         style="fill:#000000;fill-opacity:1;stroke:#000000;stroke-width:0.2;stroke-dasharray:none;stroke-opacity:1"
         x="277.36526"
         y="130.47632">POWER SUPPLY</tspan></text>
    <text
       xml:space="preserve"
       style="font-size:2.82223px;line-height:1;font-family:Arial;-inkscape-font-specification:Arial;text-align:center;letter-spacing:0.267229px;word-spacing:0.0105833px;writing-mode:lr-tb;direction:ltr;text-anchor:middle;fill:#8033bd;fill-opacity:1;stroke:#8033bd;stroke-width:0.2;stroke-miterlimit:3.7;stroke-dasharray:none;stroke-dashoffset:0;stroke-opacity:1"
       x="277.60864"
       y="135.51772"
       id="text5-5-4-8-8"><tspan
         sodipodi:role="line"
         id="tspan5-1-23-3-4"
         style="fill:#000000;fill-opacity:1;stroke:#000000;stroke-width:0.2;stroke-dasharray:none;stroke-opacity:1"
         x="277.74225"
         y="135.51772">120-240VAC</tspan></text>
    <path
       style="fill:none;fill-opacity:0;stroke:#e30000;stroke-width:0.2;stroke-miterlimit:3.7;stroke-dasharray:none;stroke-dashoffset:0;stroke-opacity:1"
       id="path3016-7-0"
       sodipodi:type="arc"
       sodipodi:cx="-227.51151"
       sodipodi:cy="-102.81203"
       sodipodi:rx="5.4277487"
       sodipodi:ry="5.4277487"
       sodipodi:start="1.5707963"
       sodipodi:end="3.1415927"
       sodipodi:open="true"
       sodipodi:arc-type="arc"
       d="m -227.51151,-97.384278 a 5.4277487,5.4277487 0 0 1 -3.83799,-1.589751 5.4277487,5.4277487 0 0 1 -1.58975,-3.838001"
       transform="scale(-1)" />
    <path
       style="fill:none;fill-opacity:0;stroke:#e30000;stroke-width:0.2;stroke-miterlimit:3.7;stroke-dasharray:none;stroke-dashoffset:0;stroke-opacity:1"
       id="path11-7"
       sodipodi:type="arc"
       sodipodi:cx="238.367"
       sodipodi:cy="128.00948"
       sodipodi:rx="5.4277487"
       sodipodi:ry="5.4277487"
       sodipodi:start="1.5707963"
       sodipodi:end="3.1415927"
       sodipodi:open="true"
       sodipodi:arc-type="arc"
       d="m 238.367,133.43722 a 5.4277487,5.4277487 0 0 1 -3.83799,-1.58975 5.4277487,5.4277487 0 0 1 -1.58975,-3.83799" />
    <path
       style="fill:none;fill-opacity:0;stroke:#e30000;stroke-width:0.2;stroke-miterlimit:3.7;stroke-dasharray:none;stroke-dashoffset:0;stroke-opacity:1;marker-end:url(#ConcaveTriangle-7-6)"
       d="m 227.51138,97.371168 -15.36335,-0.0197"
       id="path3015-1-6"
       sodipodi:nodetypes="cc" />
    <path
       style="fill:none;fill-opacity:0;stroke:#6864ed;stroke-width:0.2;stroke-miterlimit:3.7;stroke-dasharray:none;stroke-dashoffset:0;stroke-opacity:1;marker-end:url(#ConcaveTriangle-7-6)"
       d="m 253.68684,84.317568 -12.06049,14.53964"
       id="path12-3"
       sodipodi:nodetypes="cc" />
    <path
       style="fill:none;fill-opacity:0;stroke:#e30000;stroke-width:0.2;stroke-miterlimit:3.7;stroke-dasharray:none;stroke-dashoffset:0;stroke-opacity:1"
       d="m 232.93925,102.81203 v 25.19745"
       id="path3023-6-6"
       sodipodi:nodetypes="cc" />
    <path
       style="fill:none;fill-opacity:0;stroke:#e30000;stroke-width:0.2;stroke-miterlimit:3.7;stroke-dasharray:none;stroke-dashoffset:0;stroke-opacity:1"
       d="m 238.367,133.43723 24.05317,-0.0742"
       id="path13-1"
       sodipodi:nodetypes="cc" />
    <text
       xml:space="preserve"
       style="font-size:2.82223px;line-height:1;font-family:Arial;-inkscape-font-specification:Arial;text-align:center;letter-spacing:0.267229px;word-spacing:0.0105833px;writing-mode:lr-tb;direction:ltr;text-anchor:middle;fill:#8033bd;fill-opacity:1;stroke:#8033bd;stroke-width:0.2;stroke-miterlimit:3.7;stroke-dasharray:none;stroke-dashoffset:0;stroke-opacity:1"
       x="114.9185"
       y="58.549408"
       id="text5-5-6-0-5"><tspan
         sodipodi:role="line"
         id="tspan5-1-8-9-4"
         style="fill:#000000;fill-opacity:1;stroke:#000000;stroke-width:0.2;stroke-dasharray:none;stroke-opacity:1"
         x="115.05211"
         y="58.549408">SIDE VIEW</tspan></text>
    <text
       xml:space="preserve"
       style="font-size:2.82223px;line-height:1;font-family:Arial;-inkscape-font-specification:Arial;text-align:center;letter-spacing:0.267229px;word-spacing:0.0105833px;writing-mode:lr-tb;direction:ltr;text-anchor:middle;fill:#8033bd;fill-opacity:1;stroke:#8033bd;stroke-width:0.2;stroke-miterlimit:3.7;stroke-dasharray:none;stroke-dashoffset:0;stroke-opacity:1"
       x="128.74799"
       y="81.930588"
       id="text5-5-1-0-2"><tspan
         sodipodi:role="line"
         id="tspan5-1-89-5-0"
         style="fill:#000000;fill-opacity:1;stroke:#000000;stroke-width:0.2;stroke-dasharray:none;stroke-opacity:1"
         x="128.74799"
         y="81.930588">USABLE TEST </tspan><tspan
         sodipodi:role="line"
         style="fill:#000000;fill-opacity:1;stroke:#000000;stroke-width:0.2;stroke-dasharray:none;stroke-opacity:1"
         x="128.88161"
         y="84.752815"
         id="tspan10-3-9">VOLUME</tspan></text>
    <text
       xml:space="preserve"
       style="font-size:2.82223px;line-height:1;font-family:Arial;-inkscape-font-specification:Arial;text-align:center;letter-spacing:0.267229px;word-spacing:0.0105833px;writing-mode:lr-tb;direction:ltr;text-anchor:middle;fill:#8033bd;fill-opacity:1;stroke:#8033bd;stroke-width:0.2;stroke-miterlimit:3.7;stroke-dasharray:none;stroke-dashoffset:0;stroke-opacity:1"
       x="200.72537"
       y="123.1097"
       id="text5-5-54-1-7"><tspan
         sodipodi:role="line"
         id="tspan5-1-3-4-3"
         style="fill:#000000;fill-opacity:1;stroke:#000000;stroke-width:0.2;stroke-dasharray:none;stroke-opacity:1"
         x="200.85899"
         y="123.1097">CHASSIS</tspan></text>
    <text
       xml:space="preserve"
       style="font-size:2.82223px;line-height:1;font-family:Arial;-inkscape-font-specification:Arial;text-align:center;letter-spacing:0.267229px;word-spacing:0.0105833px;writing-mode:lr-tb;direction:ltr;text-anchor:middle;fill:#8033bd;fill-opacity:1;stroke:#8033bd;stroke-width:0.2;stroke-miterlimit:3.7;stroke-dasharray:none;stroke-dashoffset:0;stroke-opacity:1"
       x="171.83496"
       y="66.178581"
       id="text55-7"><tspan
         sodipodi:role="line"
         id="tspan55-2"
         style="fill:#000000;fill-opacity:1;stroke:#000000;stroke-width:0.2;stroke-dasharray:none;stroke-opacity:1"
         x="171.96858"
         y="66.178581">SEPTUM</tspan></text>
    <text
       xml:space="preserve"
       style="font-size:2.82223px;line-height:1;font-family:Arial;-inkscape-font-specification:Arial;text-align:center;letter-spacing:0.267229px;word-spacing:0.0105833px;writing-mode:lr-tb;direction:ltr;text-anchor:middle;fill:#8033bd;fill-opacity:1;stroke:#8033bd;stroke-width:0.2;stroke-miterlimit:3.7;stroke-dasharray:none;stroke-dashoffset:0;stroke-opacity:1"
       x="233.54123"
       y="59.886887"
       id="text5-5-8-1-6"><tspan
         sodipodi:role="line"
         id="tspan5-1-7-5-5"
         style="fill:#000000;fill-opacity:1;stroke:#000000;stroke-width:0.2;stroke-dasharray:none;stroke-opacity:1"
         x="233.67485"
         y="59.886887">LOAD</tspan></text>
    <text
       xml:space="preserve"
       style="font-size:2.82223px;line-height:1;font-family:Arial;-inkscape-font-specification:Arial;text-align:center;letter-spacing:0.267229px;word-spacing:0.0105833px;writing-mode:lr-tb;direction:ltr;text-anchor:middle;fill:#8033bd;fill-opacity:1;stroke:#8033bd;stroke-width:0.2;stroke-miterlimit:3.7;stroke-dasharray:none;stroke-dashoffset:0;stroke-opacity:1"
       x="252.95445"
       y="83.044052"
       id="text5-5-7-9-7"><tspan
         sodipodi:role="line"
         id="tspan5-1-9-0-5"
         style="fill:#000000;fill-opacity:1;stroke:#000000;stroke-width:0.2;stroke-dasharray:none;stroke-opacity:1"
         x="253.08806"
         y="83.044052">EM ABSORBER</tspan></text>
    <text
       xml:space="preserve"
       style="font-size:2.82223px;line-height:1;font-family:Arial;-inkscape-font-specification:Arial;text-align:center;letter-spacing:0.267229px;word-spacing:0.0105833px;writing-mode:lr-tb;direction:ltr;text-anchor:middle;fill:#8033bd;fill-opacity:1;stroke:#8033bd;stroke-width:0.2;stroke-miterlimit:3.7;stroke-dasharray:none;stroke-dashoffset:0;stroke-opacity:1"
       x="93.611092"
       y="104.95721"
       id="text5-5-86-4-4"><tspan
         sodipodi:role="line"
         id="tspan5-1-5-2-1"
         style="fill:#000000;fill-opacity:1;stroke:#000000;stroke-width:0.2;stroke-dasharray:none;stroke-opacity:1"
         x="93.611092"
         y="104.95721">INPUT</tspan><tspan
         sodipodi:role="line"
         style="fill:#000000;fill-opacity:1;stroke:#000000;stroke-width:0.2;stroke-dasharray:none;stroke-opacity:1"
         x="93.744705"
         y="107.77944"
         id="tspan12-6-2">PORT</tspan></text>
    <g
       id="g3026-0-0"
       transform="translate(69.708357,44.537507)">
      <path
         style="fill:#000000;fill-opacity:0;stroke:#000000;stroke-width:0.2;stroke-miterlimit:3.7;stroke-dasharray:none;stroke-dashoffset:0;stroke-opacity:1"
         d="m 47.25,72.098891 c 0.148352,1.001382 0,12.906603 0,12.906603 l -6.616515,3.820046 h 8.470911"
         id="path3025-5-0" />
      <path
         style="fill:#000000;fill-opacity:0;stroke:#000000;stroke-width:0.2;stroke-miterlimit:3.7;stroke-dasharray:none;stroke-dashoffset:0;stroke-opacity:1"
         d="m 50.958792,72.098891 c -0.148352,1.001382 0,12.906603 0,12.906603 l 6.616515,3.820046 h -8.470911"
         id="path3026-2-1" />
    </g>
    <g
       id="g3028-4-4"
       transform="translate(172.96854,44.537507)">
      <path
         style="fill:#000000;fill-opacity:0;stroke:#000000;stroke-width:0.2;stroke-miterlimit:3.7;stroke-dasharray:none;stroke-dashoffset:0;stroke-opacity:1"
         d="m 47.25,72.098891 c 0.148352,1.001382 0,12.906603 0,12.906603 l -6.616515,3.820046 h 8.470911"
         id="path3027-2-6" />
      <path
         style="fill:#000000;fill-opacity:0;stroke:#000000;stroke-width:0.2;stroke-miterlimit:3.7;stroke-dasharray:none;stroke-dashoffset:0;stroke-opacity:1"
         d="m 50.958792,72.098891 c -0.148352,1.001382 0,12.906603 0,12.906603 l 6.616515,3.820046 h -8.470911"
         id="path3028-3-0" />
    </g>
    <g
       id="g3025-8-7"
       transform="translate(69.708357,44.537507)">
      <path
         style="fill:#000000;fill-opacity:0;stroke:#000000;stroke-width:0.2;stroke-miterlimit:3.7;stroke-dasharray:none;stroke-dashoffset:0;stroke-opacity:1"
         d="m 47.25,72.098891 c 0.148352,1.001382 0,12.906603 0,12.906603 l -6.616515,3.820046 h 8.470911"
         id="path3014-5-1" />
      <path
         style="fill:#000000;fill-opacity:0;stroke:#000000;stroke-width:0.2;stroke-miterlimit:3.7;stroke-dasharray:none;stroke-dashoffset:0;stroke-opacity:1"
         d="m 50.958792,72.098891 c -0.148352,1.001382 0,12.906603 0,12.906603 l 6.616515,3.820046 h -8.470911"
         id="path3014-3-0-7" />
    </g>
    <path
       style="fill:none;fill-opacity:0;stroke:#6864ed;stroke-width:0.2;stroke-miterlimit:3.7;stroke-dasharray:none;stroke-dashoffset:0;stroke-opacity:1;marker-end:url(#ConcaveTriangle-3-9-3)"
       d="m 230.91898,60.598698 -8.75004,2.57633"
       id="path9-62-5-7"
       sodipodi:nodetypes="cc" />
    <path
       style="fill:none;fill-opacity:0;stroke:#6864ed;stroke-width:0.2;stroke-miterlimit:3.7;stroke-dasharray:none;stroke-dashoffset:0;stroke-opacity:1;marker-end:url(#ConcaveTriangle-1-9-9)"
       d="m 171.2599,67.032808 9.56176,12.79651"
       id="path54-77"
       sodipodi:nodetypes="cc" />
    <path
       style="fill:none;fill-opacity:0;stroke:#6864ed;stroke-width:0.2;stroke-miterlimit:3.7;stroke-dasharray:none;stroke-dashoffset:0;stroke-opacity:1;marker-end:url(#ConcaveTriangle-2-1-4)"
       d="m 128.74111,85.524968 33.72856,15.378842"
       id="path9-0-2-3"
       sodipodi:nodetypes="cc" />
    <path
       style="fill:none;fill-opacity:0;stroke:#6864ed;stroke-width:0.2;stroke-miterlimit:3.7;stroke-dasharray:none;stroke-dashoffset:0;stroke-opacity:1;marker-end:url(#ConcaveTriangle-33-1-6)"
       d="m 92.320007,108.55021 4.443633,4.48881"
       id="path9-7-9-5"
       sodipodi:nodetypes="cc" />
    <path
       style="fill:none;stroke:#000000;stroke-width:0.799999;stroke-miterlimit:3.7;stroke-dashoffset:17.5748"
       d="m 102.2908,116.6364 150.78019,1e-5 L 215.37594,51.346658 102.2908,114.29631"
       id="path6-7-9"
       sodipodi:nodetypes="cccc" />
    <rect
       style="fill:none;stroke:#000000;stroke-width:0.799999;stroke-miterlimit:3.7;stroke-dashoffset:17.5748"
       id="rect1-3-9"
       width="7.2752061"
       height="2.3400872"
       x="95.015602"
       y="114.29632" />
    <path
       style="fill:#000000;fill-opacity:0;stroke:#6864ed;stroke-width:0.5;stroke-miterlimit:3.7;stroke-dasharray:2, 1;stroke-dashoffset:0;stroke-opacity:1"
       d="M 236.22829,133.46305 H 84.773827"
       id="path3057-8"
       sodipodi:nodetypes="cc" />
    <rect
       style="fill:#b2af2c;fill-opacity:1;stroke:#0c006c;stroke-width:0.2;stroke-miterlimit:3.7;stroke-dasharray:none;stroke-dashoffset:17.5748;stroke-opacity:1"
       id="rect56-8"
       width="29.716551"
       height="1.0292275"
       x="183.4957"
       y="100.83255" />
    <rect
       style="fill:#b2af2c;fill-opacity:1;stroke:#0c006c;stroke-width:0.2;stroke-miterlimit:3.7;stroke-dasharray:none;stroke-dashoffset:17.5748;stroke-opacity:1"
       id="rect57-2"
       width="1.0818011"
       height="12.034524"
       x="186.52518"
       y="101.86177" />
    <rect
       style="fill:#b2af2c;fill-opacity:1;stroke:#0c006c;stroke-width:0.2;stroke-miterlimit:3.7;stroke-dasharray:none;stroke-dashoffset:17.5748;stroke-opacity:1"
       id="rect57-9-6"
       width="1.0818011"
       height="12.034524"
       x="208.87729"
       y="101.86177" />
  </g>
</svg>
