<?xml version="1.0" encoding="UTF-8" standalone="no"?>
<!-- Created with Inkscape (http://www.inkscape.org/) -->

<svg
   width="297.0mm"
   height="210.0mm"
   viewBox="0 0 297.0 210.0"
   version="1.1"
   id="SVGRoot"
   sodipodi:docname="Internal_structure_of_JBC.svg"
   inkscape:version="1.2.2 (b0a8486541, 2022-12-01)"
   xml:space="preserve"
   xmlns:inkscape="http://www.inkscape.org/namespaces/inkscape"
   xmlns:sodipodi="http://sodipodi.sourceforge.net/DTD/sodipodi-0.dtd"
   xmlns="http://www.w3.org/2000/svg"
   xmlns:svg="http://www.w3.org/2000/svg"><sodipodi:namedview
     id="namedview1474"
     pagecolor="#ffffff"
     bordercolor="#000000"
     borderopacity="0.25"
     inkscape:showpageshadow="2"
     inkscape:pageopacity="0.0"
     inkscape:pagecheckerboard="0"
     inkscape:deskcolor="#d1d1d1"
     inkscape:document-units="mm"
     showgrid="false"
     inkscape:zoom="2"
     inkscape:cx="383"
     inkscape:cy="300.25"
     inkscape:window-width="1920"
     inkscape:window-height="1012"
     inkscape:window-x="0"
     inkscape:window-y="32"
     inkscape:window-maximized="1"
     inkscape:current-layer="layer1"
     showguides="false"><sodipodi:guide
       position="287,210"
       orientation="-1,0"
       id="guide2014"
       inkscape:locked="false"
       inkscape:label=""
       inkscape:color="rgb(0,134,229)" /><sodipodi:guide
       position="10,210"
       orientation="-1,0"
       id="guide2016"
       inkscape:locked="false"
       inkscape:label=""
       inkscape:color="rgb(0,134,229)" /><sodipodi:guide
       position="0,200"
       orientation="0,1"
       id="guide2018"
       inkscape:locked="false"
       inkscape:label=""
       inkscape:color="rgb(0,134,229)" /><sodipodi:guide
       position="0,10"
       orientation="0,1"
       id="guide2020"
       inkscape:locked="false"
       inkscape:label=""
       inkscape:color="rgb(0,134,229)" /><sodipodi:guide
       position="162.08841,139.41067"
       orientation="0,-1"
       id="guide1864"
       inkscape:locked="false" /><sodipodi:guide
       position="72.074685,98.408505"
       orientation="0,-1"
       id="guide1866"
       inkscape:locked="false" /><sodipodi:guide
       position="143.40356,136.71656"
       orientation="0,-1"
       id="guide2714"
       inkscape:locked="false" /><sodipodi:guide
       position="204.48898,126.02096"
       orientation="0,-1"
       id="guide2716"
       inkscape:locked="false" /><sodipodi:guide
       position="146.74261,117.03372"
       orientation="0,-1"
       id="guide2718"
       inkscape:locked="false" /><sodipodi:guide
       position="150.43314,111.5858"
       orientation="0,-1"
       id="guide2720"
       inkscape:locked="false" /><sodipodi:guide
       position="183.86758,113.58347"
       orientation="0,-1"
       id="guide2722"
       inkscape:locked="false" /><sodipodi:guide
       position="129.16864,133.02603"
       orientation="0,-1"
       id="guide2724"
       inkscape:locked="false" /><sodipodi:guide
       position="204.35659,130.60136"
       orientation="0,-1"
       id="guide2726"
       inkscape:locked="false" /><sodipodi:guide
       position="135.57497,108.72264"
       orientation="0,-1"
       id="guide2728"
       inkscape:locked="false" /><sodipodi:guide
       position="137.43897,106.23731"
       orientation="0,-1"
       id="guide2730"
       inkscape:locked="false" /><sodipodi:guide
       position="204.35659,139.47865"
       orientation="1,0"
       id="guide6091"
       inkscape:locked="false" /><sodipodi:guide
       position="204.3566,125.16092"
       orientation="0,-1"
       id="guide6915"
       inkscape:locked="false" /><sodipodi:guide
       position="204.50866,121.5921"
       orientation="0,-1"
       id="guide6917"
       inkscape:locked="false" /><sodipodi:guide
       position="200.65842,130.91716"
       orientation="1,0"
       id="guide6919"
       inkscape:locked="false" /><sodipodi:guide
       position="204.35186,124.48616"
       orientation="0,-1"
       id="guide7027"
       inkscape:locked="false" /><sodipodi:guide
       position="204.3566,135.04704"
       orientation="0,-1"
       id="guide7031"
       inkscape:locked="false" /><sodipodi:guide
       position="197.61924,135.04704"
       orientation="1,0"
       id="guide7037"
       inkscape:locked="false" /><sodipodi:guide
       position="194.89678,130.93531"
       orientation="0,-1"
       id="guide7043"
       inkscape:locked="false" /><sodipodi:guide
       position="194.8513,129.60073"
       orientation="0,-1"
       id="guide7045"
       inkscape:locked="false" /><sodipodi:guide
       position="178.88191,133.02603"
       orientation="1,0"
       id="guide7049"
       inkscape:locked="false" /><sodipodi:guide
       position="173.91125,133.02603"
       orientation="1,0"
       id="guide7051"
       inkscape:locked="false" /><sodipodi:guide
       position="168.94059,133.02603"
       orientation="-1,0"
       id="guide7053"
       inkscape:locked="false"
       inkscape:label=""
       inkscape:color="rgb(0,134,229)" /><sodipodi:guide
       position="163.96989,133.02603"
       orientation="-1,0"
       id="guide7055"
       inkscape:locked="false"
       inkscape:label=""
       inkscape:color="rgb(0,134,229)" /><sodipodi:guide
       position="158.99919,133.02603"
       orientation="-1,0"
       id="guide7057"
       inkscape:locked="false"
       inkscape:label=""
       inkscape:color="rgb(0,134,229)" /><sodipodi:guide
       position="154.02849,133.02603"
       orientation="-1,0"
       id="guide7059"
       inkscape:locked="false"
       inkscape:label=""
       inkscape:color="rgb(0,134,229)" /><sodipodi:guide
       position="149.05779,133.02603"
       orientation="-1,0"
       id="guide7061"
       inkscape:locked="false"
       inkscape:label=""
       inkscape:color="rgb(0,134,229)" /><sodipodi:guide
       position="144.08709,133.02603"
       orientation="-1,0"
       id="guide7063"
       inkscape:locked="false"
       inkscape:label=""
       inkscape:color="rgb(0,134,229)" /><sodipodi:guide
       position="139.11639,133.02603"
       orientation="-1,0"
       id="guide7065"
       inkscape:locked="false"
       inkscape:label=""
       inkscape:color="rgb(0,134,229)" /><sodipodi:guide
       position="134.14569,133.02603"
       orientation="-1,0"
       id="guide7067"
       inkscape:locked="false"
       inkscape:label=""
       inkscape:color="rgb(0,134,229)" /><sodipodi:guide
       position="129.17499,133.02603"
       orientation="-1,0"
       id="guide7069"
       inkscape:locked="false"
       inkscape:label=""
       inkscape:color="rgb(0,134,229)" /><sodipodi:guide
       position="124.20429,133.02603"
       orientation="-1,0"
       id="guide7071"
       inkscape:locked="false"
       inkscape:label=""
       inkscape:color="rgb(0,134,229)" /><sodipodi:guide
       position="127.6219,133.02603"
       orientation="1,0"
       id="guide7073"
       inkscape:locked="false" /><sodipodi:guide
       position="124.2043,134.52603"
       orientation="0,-1"
       id="guide8027"
       inkscape:locked="false" /><sodipodi:guide
       position="124.2043,131.52603"
       orientation="0,-1"
       id="guide8029"
       inkscape:locked="false" /><sodipodi:guide
       position="120.34479,134.52603"
       orientation="1,0"
       id="guide8031"
       inkscape:locked="false" /><sodipodi:guide
       position="182.92631,129.46844"
       orientation="1,0"
       id="guide8910"
       inkscape:locked="false" /><sodipodi:guide
       position="183.85261,128.14453"
       orientation="-1,0"
       id="guide8912"
       inkscape:locked="false"
       inkscape:label=""
       inkscape:color="rgb(0,134,229)" /><sodipodi:guide
       position="187.70257,131.97445"
       orientation="-1,0"
       id="guide9681"
       inkscape:locked="false"
       inkscape:label=""
       inkscape:color="rgb(0,134,229)" /><sodipodi:guide
       position="186.87852,129.46844"
       orientation="1,0"
       id="guide9710"
       inkscape:locked="false" /><sodipodi:guide
       position="191.55257,129.46844"
       orientation="-1,0"
       id="guide9712"
       inkscape:locked="false"
       inkscape:label=""
       inkscape:color="rgb(0,134,229)" /><sodipodi:guide
       position="122.7043,133.02603"
       orientation="1,0"
       id="guide9745"
       inkscape:locked="false" /><sodipodi:guide
       position="125.7043,133.02603"
       orientation="1,0"
       id="guide9747"
       inkscape:locked="false" /><sodipodi:guide
       position="130.67499,133.02603"
       orientation="1,0"
       id="guide9749"
       inkscape:locked="false" /><sodipodi:guide
       position="122.7043,127.74765"
       orientation="0,-1"
       id="guide9751"
       inkscape:locked="false" /><sodipodi:guide
       position="127.6219,119.28099"
       orientation="0,-1"
       id="guide9753"
       inkscape:locked="false" /><sodipodi:guide
       position="122.7043,142.88194"
       orientation="0,-1"
       id="guide9854"
       inkscape:locked="false" /><sodipodi:guide
       position="246.47583,134.52603"
       orientation="1,0"
       id="guide12235"
       inkscape:locked="false" /><sodipodi:guide
       position="120.2862,103.77353"
       orientation="0,-1"
       id="guide12318"
       inkscape:locked="false" /><sodipodi:guide
       position="129.17499,110.21743"
       orientation="0,-1"
       id="guide13257"
       inkscape:locked="false" /><sodipodi:guide
       position="76.680087,139.41067"
       orientation="1,0"
       id="guide13351"
       inkscape:locked="false" /><sodipodi:guide
       position="183.85262,131.10073"
       orientation="0,-1"
       id="guide16612"
       inkscape:locked="false" /></sodipodi:namedview><defs
     id="defs1469" /><g
     inkscape:label="Layer 1"
     inkscape:groupmode="layer"
     id="layer1"><rect
       style="fill:#ffffff;fill-opacity:1;stroke-width:0.263683"
       id="rect2067"
       width="297"
       height="210"
       x="0"
       y="0"
       sodipodi:insensitive="true" /><path
       style="fill:none;stroke:#000000;stroke-width:0.353173;stroke-opacity:1"
       id="path12233-4"
       sodipodi:type="arc"
       sodipodi:cx="251.55217"
       sodipodi:cy="82.177116"
       sodipodi:rx="29.67009"
       sodipodi:ry="17.264565"
       sodipodi:start="1.5697493"
       sodipodi:end="1.5696702"
       sodipodi:arc-type="arc"
       d="M 251.58324,99.441671 A 29.67009,17.264565 0 0 1 221.8821,82.195534 29.67009,17.264565 0 0 1 251.51993,64.912562 29.67009,17.264565 0 0 1 281.22224,82.158016 29.67009,17.264565 0 0 1 251.58558,99.44167"
       sodipodi:open="true" /><path
       style="fill:none;stroke:#000000;stroke-width:0.353173;stroke-opacity:1"
       d="m 83.110751,105.96184 c 0,0 1.433979,-0.43654 4.294007,2.09851 2.860016,2.53504 9.49503,2.53504 9.49503,2.53504 l 81.261082,-0.007 h 8.09796 c 7.22885,0 8.9932,-2e-5 15.25908,-4.63355"
       id="path9856-7"
       sodipodi:nodetypes="csccsc" /><path
       style="fill:none;stroke:#000000;stroke-width:0.353173;stroke-opacity:1"
       d="m 201.51791,105.95557 c 0,0 8.07246,-5.5672 14.39064,-5.82471 14.29694,-0.582708 13.98224,-0.695461 27.08828,-0.695461 h 8.47713"
       id="path12239-8"
       sodipodi:nodetypes="cscc" /><g
       transform="matrix(0.18083761,0,0,0.18083761,-32.674858,-4.5976891)"
       id="g2896"
       sodipodi:insensitive="true"><text
         xml:space="preserve"
         style="font-style:normal;font-weight:normal;font-size:32px;line-height:1.25;font-family:sans-serif;fill:#ffffff;fill-opacity:1;stroke:none"
         x="1118.1243"
         y="1080.05"
         id="text2870"><tspan
           sodipodi:role="line"
           id="tspan2868"
           x="1118.1243"
           y="1080.05"
           style="font-style:normal;font-variant:normal;font-weight:normal;font-stretch:normal;font-size:32px;font-family:'Courier New';-inkscape-font-specification:'Courier New';fill:#ffffff;fill-opacity:1" /></text><text
         xml:space="preserve"
         style="font-style:normal;font-variant:normal;font-weight:normal;font-stretch:normal;font-size:17.5572px;font-family:'Ubuntu Mono';-inkscape-font-specification:'Ubuntu Mono';fill:#c8c4b7;stroke-width:1.4631"
         x="1601.5372"
         y="1124.722"
         id="text3891"><tspan
           sodipodi:role="line"
           id="tspan3889"
           style="font-style:normal;font-variant:normal;font-weight:normal;font-stretch:normal;font-family:'Ubuntu Mono';-inkscape-font-specification:'Ubuntu Mono';fill:#808080;stroke-width:1.4631"
           x="1601.5372"
           y="1124.722">Krishnawa.github.io</tspan></text></g><text
       xml:space="preserve"
       style="font-style:normal;font-variant:normal;font-weight:normal;font-stretch:normal;font-size:6.82037px;line-height:1.25;font-family:'Ubuntu Mono';-inkscape-font-specification:'Ubuntu Mono, Normal';font-variant-ligatures:normal;font-variant-caps:normal;font-variant-numeric:normal;font-variant-east-asian:normal;letter-spacing:0px;fill:#000000;fill-opacity:1;stroke:#232324;stroke-width:0.264583;stroke-opacity:1"
       x="113.99286"
       y="19.748554"
       id="text23832"
       inkscape:export-xdpi="96"
       inkscape:export-ydpi="96"
       sodipodi:insensitive="true"><tspan
         sodipodi:role="line"
         id="tspan23830"
         x="113.99286"
         y="19.748554"
         style="font-style:normal;font-variant:normal;font-weight:normal;font-stretch:normal;font-size:6.82037px;font-family:'Ubuntu Mono';-inkscape-font-specification:'Ubuntu Mono, Normal';font-variant-ligatures:normal;font-variant-caps:normal;font-variant-numeric:normal;font-variant-east-asian:normal;stroke:#232324;stroke-width:0.264583;stroke-opacity:1">TEMPLATE HEADING</tspan></text><g
       id="g2630"
       transform="matrix(0.26458333,0,0,0.26458333,254.96424,182.92959)"
       sodipodi:insensitive="true"><path
         id="path3817_5_"
         nodetypes="ccccccc"
         d="M 3.4083297,0.45268464 116.76243,0.65404185 c 1.58383,0 2.99881,-0.23483394 2.99881,3.16052515 l -0.13878,37.329077 H 0.54733418 V 3.675801 c 0,-1.6743929 0.16206577,-3.22311636 2.86099552,-3.22311636 z"
         style="fill:#aab2ab" /><path
         d="M 117.7533,-1.417352e-6 H 2.2476335 C 1.0083193,-1.417352e-6 -2.0408688e-5,1.0082254 -2.0408688e-5,2.2469141 V 41.492978 c 0,0.279957 0.227098788688,0.50702 0.507563608688,0.50702 H 119.49241 c 0.28048,0 0.50757,-0.227073 0.50757,-0.50702 V 2.2469141 c 0,-1.2386887 -1.00834,-2.246915517352 -2.24668,-2.246915517352 z M 2.2476335,1.0150221 H 117.75331 c 0.67933,0 1.23155,0.5526294 1.23155,1.2319019 0,0 0,15.796336 0,27.220625 H 36.428267 c -3.025983,5.471006 -8.856684,9.185621 -15.547234,9.185621 -6.692497,0 -12.5212501,-3.711217 -15.5452952,-9.185621 H 1.0151167 c 0,-11.424289 0,-27.220625 0,-27.220625 -9.9e-6,-0.6792725 0.5531682,-1.2319019 1.2325168,-1.2319019 z"
         id="path120" /><g
         id="g5908_5_"
         transform="matrix(0.8674921,0,0,0.8673951,-387.30972,67.870882)"><path
           id="path5906_5_"
           cx="296.35416"
           ry="22.939548"
           cy="264.3577"
           type="arc"
           rx="22.939548"
           d="m 486.26599,-55.7066 c 0.006,8.68079 -7.02789,15.7215 -15.70813,15.72708 -8.68018,0.0056 -15.7215,-7.02786 -15.72705,-15.7081 0,-0.0067 0,-0.01227 0,-0.01898 -0.006,-8.68079 7.02783,-15.7215 15.70807,-15.72711 8.68134,-0.005 15.7226,7.02783 15.72711,15.70807 0,0.0062 0,0.01287 0,0.01904 z"
           style="fill:#ffffff" /><g
           id="g5706_5_"
           transform="translate(-289.6157,99.0653)"><path
             id="path5708_5_"
             d="m 772.94165,-167.5741 c 3.48486,3.48541 5.22778,7.75336 5.22778,12.80219 0,5.04938 -1.71277,9.27203 -5.13831,12.66794 -3.63586,3.57602 -7.93176,5.36374 -12.89001,5.36374 -4.89783,0 -9.11987,-1.77264 -12.66394,-5.31955 -3.54639,-3.54526 -5.31848,-7.78244 -5.31848,-12.71213 0,-4.92859 1.77209,-9.19598 5.31848,-12.80219 3.45459,-3.48651 7.67664,-5.22949 12.66394,-5.22949 5.04883,0 9.31458,1.74298 12.80054,5.22949 z m -23.11853,2.34485 c -2.94678,2.97638 -4.42017,6.46289 -4.42017,10.46179 0,3.9989 1.45886,7.45581 4.37427,10.37122 2.9176,2.9165 6.38904,4.37476 10.4176,4.37476 4.02856,0 7.53015,-1.47281 10.50708,-4.41895 2.82593,-2.73645 4.23889,-6.17767 4.23889,-10.32703 0,-4.11749 -1.4364,-7.61292 -4.30823,-10.48419 -2.87061,-2.87061 -6.34985,-4.30652 -10.43774,-4.30652 -4.08789,0 -7.54699,1.44318 -10.3717,4.32892 z m 7.75391,8.70319 c -0.44971,-0.98169 -1.12317,-1.47284 -2.02271,-1.47284 -1.58862,0 -2.38293,1.07007 -2.38293,3.20911 0,2.13953 0.79431,3.2085 2.38293,3.2085 1.04944,0 1.79895,-0.52075 2.24866,-1.56458 l 2.20276,1.17303 c -1.05042,1.86548 -2.62561,2.79901 -4.72546,2.79901 -1.62,0 -2.91772,-0.4967 -3.89209,-1.48956 -0.97546,-0.99341 -1.46326,-2.36334 -1.46326,-4.10852 0,-1.71503 0.50342,-3.07654 1.50806,-4.08502 1.00452,-1.00854 2.25757,-1.51257 3.75781,-1.51257 2.22058,0 3.8092,0.87488 4.77136,2.62286 z m 10.36389,0 c -0.45081,-0.98169 -1.11206,-1.47284 -1.98242,-1.47284 -1.62097,0 -2.43213,1.07007 -2.43213,3.20911 0,2.13953 0.81116,3.2085 2.43213,3.2085 1.05164,0 1.78772,-0.52075 2.20728,-1.56458 l 2.25195,1.17303 c -1.04822,1.86548 -2.62109,2.79901 -4.71765,2.79901 -1.61768,0 -2.91199,-0.4967 -3.88647,-1.48956 -0.97217,-0.99341 -1.45996,-2.36334 -1.45996,-4.10852 0,-1.71503 0.49451,-3.07654 1.48352,-4.08502 0.98779,-1.00854 2.24524,-1.51257 3.77344,-1.51257 2.21619,0 3.80371,0.87488 4.76135,2.62286 z" /></g></g><g
         transform="matrix(0.9937808,0,0,0.9936696,-437.12334,-74.436914)"
         id="g126"><circle
           cx="491.94629"
           cy="90.231934"
           r="10.80615"
           id="circle128"
           style="fill:#ffffff" /><g
           id="g130"><path
             d="m 495.07373,87.10498 c 0,-0.4165 -0.33789,-0.75391 -0.75391,-0.75391 h -4.77246 c -0.41602,0 -0.75391,0.3374 -0.75391,0.75391 v 4.77295 h 1.33105 v 5.65186 h 3.61719 v -5.65186 h 1.33203 v -4.77295 z"
             id="path132" /><circle
             cx="491.93359"
             cy="84.090332"
             r="1.63232"
             id="circle134" /></g><path
           clip-rule="evenodd"
           d="m 491.91846,78.3252 c -3.23145,0 -5.96777,1.12793 -8.20703,3.38379 -2.29785,2.3335 -3.44629,5.0957 -3.44629,8.28467 0,3.18897 1.14844,5.93164 3.44629,8.22705 2.29785,2.29395 5.03418,3.44189 8.20703,3.44189 3.21289,0 5.99805,-1.15674 8.35449,-3.47168 2.21973,-2.19727 3.3291,-4.92969 3.3291,-8.19727 0,-3.26758 -1.12891,-6.02881 -3.3877,-8.28467 -2.25879,-2.25586 -5.02343,-3.38378 -8.29589,-3.38378 z m 0.0303,2.0996 c 2.64844,0 4.89648,0.93408 6.74609,2.80127 1.87012,1.84717 2.80469,4.10352 2.80469,6.76758 0,2.68359 -0.91504,4.91064 -2.74609,6.68066 -1.92773,1.90576 -4.19629,2.8584 -6.80469,2.8584 -2.61035,0 -4.85938,-0.94287 -6.74805,-2.82959 -1.88867,-1.88623 -2.83301,-4.12256 -2.83301,-6.70947 0,-2.58691 0.9541,-4.84229 2.8623,-6.76758 1.83107,-1.86718 4.07032,-2.80127 6.71876,-2.80127 z"
           id="path136"
           style="fill-rule:evenodd" /></g><g
         transform="matrix(0.9937808,0,0,0.9936696,-437.12334,-74.436914)"
         enable-background="new    "
         id="g138"><path
           d="m 488.56299,107.86719 c 0.31738,0 0.60742,0.0283 0.86914,0.084 0.26172,0.0557 0.48633,0.14746 0.67383,0.27539 0.18652,0.12695 0.33105,0.29688 0.43457,0.50781 0.10254,0.21191 0.1543,0.47266 0.1543,0.78418 0,0.33594 -0.0762,0.61523 -0.22949,0.83887 -0.15234,0.22461 -0.37891,0.40723 -0.67773,0.55078 0.41211,0.11816 0.71973,0.3252 0.92285,0.62109 0.20312,0.29589 0.30469,0.65234 0.30469,1.06934 0,0.33594 -0.0654,0.62695 -0.19629,0.87305 -0.13086,0.24512 -0.30762,0.44629 -0.5293,0.60156 -0.2207,0.15625 -0.47363,0.27148 -0.75684,0.3457 -0.28418,0.0752 -0.5752,0.1123 -0.875,0.1123 h -3.23633 v -6.66406 h 3.1416 z m -0.1875,2.69531 c 0.26172,0 0.47656,-0.0625 0.64453,-0.18652 0.16895,-0.12402 0.25293,-0.3252 0.25293,-0.60449 0,-0.15527 -0.0283,-0.2832 -0.084,-0.38184 -0.0566,-0.0996 -0.13086,-0.17676 -0.22461,-0.2334 -0.0937,-0.0557 -0.20117,-0.0947 -0.32227,-0.11621 -0.12207,-0.0215 -0.24805,-0.0322 -0.37891,-0.0322 h -1.37305 v 1.55469 z m 0.0859,2.82812 c 0.14355,0 0.28027,-0.0137 0.41113,-0.042 0.13086,-0.0283 0.24609,-0.0752 0.34668,-0.13965 0.0996,-0.0654 0.17871,-0.1543 0.23828,-0.2666 0.0586,-0.11133 0.0889,-0.25488 0.0889,-0.42871 0,-0.3418 -0.0967,-0.58594 -0.29004,-0.73242 -0.19336,-0.14551 -0.44922,-0.21875 -0.7666,-0.21875 h -1.59961 v 1.82812 z"
           id="path140"
           style="fill:#ffffff" /><path
           d="m 491.27393,107.86719 h 1.64258 l 1.56055,2.63184 1.55176,-2.63184 h 1.63379 l -2.47461,4.10645 v 2.55762 h -1.46875 v -2.59473 z"
           id="path142"
           style="fill:#ffffff" /></g><g
         transform="matrix(0.9937808,0,0,0.9936696,-437.12334,-74.436914)"
         enable-background="new    "
         id="g144"><path
           d="m 538.91553,112.88379 c 0.0811,0.15527 0.1875,0.28125 0.32129,0.37793 0.13379,0.0967 0.29004,0.16797 0.4707,0.21484 0.17969,0.0469 0.36523,0.0703 0.55859,0.0703 0.12988,0 0.26953,-0.0107 0.41895,-0.0332 0.14844,-0.0215 0.28809,-0.0635 0.41895,-0.12598 0.12988,-0.0615 0.23828,-0.14746 0.32617,-0.25684 0.0859,-0.1084 0.12988,-0.24707 0.12988,-0.41504 0,-0.18066 -0.0576,-0.32617 -0.17285,-0.43848 -0.11426,-0.1123 -0.26562,-0.20508 -0.45117,-0.28027 -0.18652,-0.0742 -0.39844,-0.13965 -0.63379,-0.19629 -0.23633,-0.0557 -0.47559,-0.11816 -0.71777,-0.18652 -0.24902,-0.0625 -0.49121,-0.13867 -0.72754,-0.22852 -0.23535,-0.0898 -0.44727,-0.20703 -0.63379,-0.35059 -0.18555,-0.14258 -0.33691,-0.32129 -0.45117,-0.53613 -0.11523,-0.21484 -0.17285,-0.47461 -0.17285,-0.7793 0,-0.34277 0.0732,-0.63965 0.21875,-0.8916 0.14648,-0.25195 0.33789,-0.46191 0.57324,-0.63086 0.23633,-0.16797 0.50391,-0.29199 0.80273,-0.37305 0.29785,-0.0811 0.59668,-0.12109 0.89453,-0.12109 0.34863,0 0.68262,0.0391 1.00293,0.11719 0.31934,0.0772 0.60449,0.2041 0.85254,0.37793 0.24902,0.1748 0.44629,0.39746 0.59277,0.66797 0.14551,0.27148 0.21875,0.59961 0.21875,0.98535 h -1.42188 c -0.0127,-0.19922 -0.0537,-0.36426 -0.125,-0.49414 -0.0713,-0.13086 -0.16602,-0.2334 -0.28418,-0.30859 -0.11719,-0.0742 -0.25195,-0.12793 -0.40332,-0.1582 -0.15137,-0.0312 -0.31738,-0.0469 -0.49707,-0.0469 -0.11719,0 -0.23535,0.0127 -0.35254,0.0371 -0.11816,0.0254 -0.22461,0.0684 -0.32031,0.13086 -0.0967,0.0625 -0.1748,0.13965 -0.2373,0.2334 -0.0615,0.0937 -0.0928,0.21191 -0.0928,0.35449 0,0.13086 0.0244,0.2373 0.0742,0.31738 0.0498,0.0811 0.14746,0.15625 0.29395,0.22461 0.14649,0.0684 0.34766,0.13672 0.60547,0.20508 0.25781,0.0684 0.5957,0.15625 1.01172,0.26172 0.12402,0.0244 0.29688,0.0703 0.5166,0.13574 0.2207,0.0654 0.44043,0.16895 0.65723,0.3125 0.21777,0.14355 0.40527,0.33496 0.56445,0.57422 0.1582,0.23926 0.2373,0.5459 0.2373,0.91992 0,0.30469 -0.0596,0.58789 -0.17773,0.84961 -0.11816,0.26172 -0.29395,0.4873 -0.52734,0.67676 -0.2334,0.19043 -0.52246,0.33789 -0.86816,0.44336 -0.34473,0.10645 -0.74414,0.15918 -1.19922,0.15918 -0.36719,0 -0.72266,-0.0459 -1.06836,-0.13574 -0.3457,-0.0908 -0.65039,-0.23242 -0.91406,-0.42578 -0.26465,-0.19336 -0.47461,-0.44043 -0.63086,-0.73926 -0.15527,-0.29883 -0.23047,-0.65332 -0.22363,-1.06445 h 1.42188 c -3e-5,0.22364 0.04,0.41407 0.12107,0.56934 z"
           id="path146"
           style="fill:#ffffff" /><path
           d="m 547.17236,107.86719 2.49219,6.66406 h -1.52148 l -0.50391,-1.48438 h -2.49219 l -0.52344,1.48438 h -1.47461 l 2.52051,-6.66406 z m 0.084,4.08593 -0.83984,-2.44336 h -0.0195 l -0.86719,2.44336 z"
           id="path148"
           style="fill:#ffffff" /></g><g
         transform="matrix(0.9937808,0,0,0.9936696,-437.12334,-74.436914)"
         enable-background="new    "
         id="g150"><path
           d="m 512.83057,107.86719 2.78418,4.4707 h 0.0156 v -4.4707 h 1.375 v 6.66406 h -1.46582 l -2.77344,-4.46191 h -0.0186 v 4.46191 h -1.375 v -6.66406 z"
           id="path152"
           style="fill:#ffffff" /><path
           d="m 522.56885,109.64258 c -0.0869,-0.14062 -0.19629,-0.26367 -0.32715,-0.36914 -0.13086,-0.10547 -0.27832,-0.18848 -0.44336,-0.24707 -0.16504,-0.0596 -0.33789,-0.0889 -0.51758,-0.0889 -0.33008,0 -0.61035,0.0635 -0.84082,0.19141 -0.23047,0.12695 -0.41699,0.29785 -0.55957,0.5127 -0.14355,0.21484 -0.24805,0.45898 -0.31348,0.73242 -0.0654,0.27344 -0.0977,0.55664 -0.0977,0.84863 0,0.28027 0.0322,0.55273 0.0977,0.81641 0.0654,0.26465 0.16992,0.50293 0.31348,0.71387 0.14258,0.21191 0.3291,0.38086 0.55957,0.50879 0.23047,0.12793 0.51074,0.19141 0.84082,0.19141 0.44727,0 0.79785,-0.13672 1.0498,-0.41113 0.25195,-0.27344 0.40625,-0.63477 0.46191,-1.08301 h 1.41895 c -0.0371,0.41699 -0.13379,0.79395 -0.28906,1.12988 -0.15527,0.33691 -0.36133,0.62305 -0.61621,0.86035 -0.25488,0.2373 -0.55371,0.41797 -0.89648,0.54297 -0.3418,0.125 -0.71875,0.1875 -1.12891,0.1875 -0.51074,0 -0.96973,-0.0889 -1.37793,-0.2666 -0.40723,-0.17676 -0.75195,-0.42188 -1.03223,-0.73242 -0.28027,-0.31152 -0.49609,-0.67773 -0.64551,-1.09766 -0.14941,-0.4209 -0.22461,-0.87305 -0.22461,-1.35938 0,-0.49805 0.0752,-0.95996 0.22461,-1.38672 0.14941,-0.42676 0.36523,-0.79883 0.64551,-1.11621 0.28028,-0.31738 0.625,-0.56641 1.03223,-0.74707 0.4082,-0.18066 0.86719,-0.27051 1.37793,-0.27051 0.36719,0 0.71387,0.0527 1.04004,0.15918 0.32715,0.10547 0.62012,0.25977 0.87793,0.46289 0.25879,0.20215 0.47168,0.45312 0.63965,0.75195 0.16797,0.29883 0.27344,0.6416 0.31738,1.02734 h -1.41895 c -0.0254,-0.16797 -0.0811,-0.32226 -0.16796,-0.46191 z"
           id="path154"
           style="fill:#ffffff" /></g><g
         id="g6332_1_"
         transform="matrix(0.621108,0,0,0.6210385,-285.77182,240.48957)"><path
           id="path6334_1_"
           cx="475.97119"
           ry="29.209877"
           cy="252.08646"
           type="arc"
           rx="29.209877"
           d="m 644.57642,-363.11569 c 0.008,9.4118 -7.61731,17.04779 -17.02979,17.05481 -9.4126,0.005 -17.047,-7.61725 -17.05493,-17.03137 0,-0.007 0,-0.0164 0,-0.0234 -0.006,-9.4118 7.6189,-17.04779 17.02991,-17.05481 9.4126,-0.007 17.047,7.61804 17.05481,17.02905 0,0.009 0,0.0164 0,0.0258 z"
           style="fill:#ffffff" /><g
           id="g6336_1_"
           transform="translate(-23.9521,-89.72962)"><path
             id="path6338_1_"
             d="m 651.36426,-292.05655 c -5.17188,0 -9.55005,1.80548 -13.13135,5.41333 -3.67651,3.73444 -5.51562,8.15399 -5.51562,13.25714 0,5.10315 1.83911,9.48993 5.51562,13.1626 3.67505,3.67194 8.05322,5.50787 13.13135,5.50787 5.14075,0 9.59546,-1.85236 13.36572,-5.55396 3.55164,-3.51721 5.32825,-7.88916 5.32825,-13.11652 0,-5.22742 -1.80627,-9.64697 -5.422,-13.25714 -3.61401,-3.60784 -8.03748,-5.41332 -13.27197,-5.41332 z m 0.0469,3.36096 c 4.23755,0 7.83447,1.49298 10.79541,4.48132 2.99072,2.95544 4.48596,6.56329 4.48596,10.82819 0,4.29376 -1.46399,7.85632 -4.3938,10.68994 -3.08276,3.04846 -6.71411,4.57269 -10.88757,4.57269 -4.17505,0 -7.77344,-1.5094 -10.79541,-4.5274 -3.02185,-3.01874 -4.53284,-6.59613 -4.53284,-10.73523 0,-4.1391 1.52502,-7.74847 4.57971,-10.82819 2.92823,-2.98834 6.51099,-4.48132 10.74854,-4.48132 z" /><path
             id="path6340_1_"
             d="m 643.08923,-276.02048 c 0.74377,-4.69849 4.05005,-7.20941 8.19543,-7.20941 5.95935,0 9.59216,4.32501 9.59216,10.09222 0,5.62817 -3.8656,9.99854 -9.68604,9.99854 -4.00464,0 -7.59058,-2.46332 -8.24219,-7.30084 h 4.70312 c 0.14062,2.51099 1.77039,3.39532 4.09851,3.39532 2.6532,0 4.37659,-2.46484 4.37659,-6.23206 0,-3.95471 -1.48901,-6.04614 -4.28442,-6.04614 -2.04846,0 -3.81726,0.74451 -4.19067,3.30237 l 1.36719,-0.009 -3.70154,3.70319 -3.70166,-3.70319 z" /></g></g><g
         transform="translate(4.972327e-4,0.00962355)"
         id="g2366"><path
           id="path6372_1_"
           cx="475.97119"
           ry="29.209877"
           cy="252.08646"
           type="arc"
           rx="29.209877"
           d="m 87.801399,14.981221 c 0.0048,5.500587 -4.451603,9.961917 -9.953251,9.966304 -5.500714,0.0034 -9.962985,-4.45211 -9.966848,-9.951763 0,-0.0058 0,-0.01019 0,-0.01454 -0.0039,-5.5010765 4.452572,-9.9624055 9.953251,-9.9667814 5.50068,-0.00341 9.96295,4.4521099 9.966848,9.9517284 0,0.0049 0,0.01019 0,0.01505 z"
           style="fill:#ffffff" /><path
           id="path45"
           d="m 86.070369,6.7455646 c -2.24512,-2.242292 -4.99278,-3.362732 -8.24368,-3.362732 -3.21268,0 -5.93132,1.12044 -8.15662,3.362732 -2.28405,2.319442 -3.42502,5.0635624 -3.42502,8.2337704 0,3.169502 1.14097,5.89522 3.42502,8.175023 2.28334,2.28122 5.00198,3.421479 8.15662,3.421479 3.19286,0 5.96033,-1.150166 8.30171,-3.449789 2.2062,-2.184252 3.30965,-4.900058 3.30965,-8.146713 0,-3.247361 -1.12256,-5.9921884 -3.36768,-8.2337704 z m -1.45169,14.8728804 c -1.916,1.894056 -4.17032,2.840378 -6.76297,2.840378 -2.59336,0 -4.82858,-0.93712 -6.70565,-2.812068 -1.87707,-1.874948 -2.8156,-4.097421 -2.8156,-6.667423 0,-1.087172 0.17164,-2.114891 0.51103,-3.083862 l 3.07288,1.360027 h -0.22154 v 1.378074 h 1.08753 c 0,0.194644 -0.01946,0.388581 -0.01946,0.582514 v 0.33054 h -1.06807 v 1.378074 h 1.262 c 0.17482,1.029132 0.56305,1.863623 1.08717,2.523993 1.08717,1.436821 2.83436,2.213272 4.73692,2.213272 1.24288,0 2.36828,-0.368761 3.02865,-0.738229 l -0.46644,-2.154525 c -0.40769,0.213752 -1.31933,0.504658 -2.21257,0.504658 -0.97109,0 -1.88308,-0.290902 -2.50452,-0.990204 -0.29126,-0.329833 -0.50466,-0.776451 -0.6402,-1.358965 h 4.22057 l 5.99714,2.654584 c -0.41547,0.736114 -0.94277,1.416303 -1.58687,2.039162 z m -7.54225,-6.071813 -0.02548,-0.01946 0.04388,0.01946 z m 3.61045,-0.913054 h 0.17342 v -1.378074 h -3.287 l -1.33525,-0.591008 c 0.11501,-0.258345 0.25091,-0.489441 0.40945,-0.670281 0.60198,-0.738937 1.45594,-1.048951 2.3881,-1.048951 0.85431,0 1.64987,0.251974 2.15453,0.46573 l 0.54358,-2.2132724 c -0.6993,-0.310015 -1.72773,-0.581808 -2.91187,-0.581808 -1.82469,0 -3.37794,0.737523 -4.48458,1.9797014 -0.2456,0.283824 -0.45865,0.602333 -0.65188,0.939244 l -3.8136,-1.6877374 c 0.36947,-0.554204 0.80406,-1.086465 1.3073,-1.593953 1.81974,-1.855836 4.04434,-2.783755 6.67662,-2.783755 2.63158,0 4.8668,0.927919 6.70565,2.783755 1.85725,1.8360194 2.78588,4.0776014 2.78588,6.7261704 0,0.872709 -0.0991,1.695876 -0.29445,2.471617 z" /></g></g><path
       style="fill:none;stroke:#000000;stroke-width:0.353173;stroke-opacity:1"
       id="path7025"
       sodipodi:type="arc"
       sodipodi:cx="195.33023"
       sodipodi:cy="70.151314"
       sodipodi:rx="4.9364109"
       sodipodi:ry="5.9342208"
       sodipodi:start="1.5696958"
       sodipodi:end="4.7131227"
       sodipodi:arc-type="arc"
       d="m 195.33566,76.085531 a 4.9364109,5.9342208 0 0 1 -4.27928,-2.964594 4.9364109,5.9342208 0 0 1 -9e-4,-5.937362 4.9364109,5.9342208 0 0 1 4.27837,-2.96648"
       sodipodi:open="true" /><path
       style="fill:none;stroke:#000000;stroke-width:0.353173;stroke-opacity:1"
       d="m 195.33024,76.265353 v 5.911765 z"
       id="path7033" /><path
       style="fill:none;stroke:#000000;stroke-width:0.353173;stroke-opacity:1"
       d="M 195.33024,64.217091 V 58.392397 H 83.14551 24.904103"
       id="path7035"
       sodipodi:nodetypes="cccc" /><path
       style="fill:none;stroke:#000000;stroke-width:0.353173;stroke-opacity:1"
       d="m 186.33703,61.988568 -161.432927,10e-7"
       id="path7039"
       sodipodi:nodetypes="cc" /><path
       style="fill:none;stroke:#000000;stroke-width:0.353173;stroke-opacity:1"
       d="m 186.33703,61.988568 v 2.228523"
       id="path7041" /><path
       style="fill:none;stroke:#000000;stroke-width:0.353173;stroke-opacity:1"
       d="m 186.33703,64.217091 -3.63401,5.488451 0.004,0.445766 -0.0649,1.335668 H 24.904103 25.062308"
       id="path7047"
       sodipodi:nodetypes="cccccc" /><path
       style="fill:none;stroke:#000000;stroke-width:0.353173;stroke-opacity:1"
       id="path7075-97"
       sodipodi:type="arc"
       sodipodi:cx="167.96097"
       sodipodi:cy="-71.486977"
       sodipodi:rx="2.0022416"
       sodipodi:ry="2.0022416"
       sodipodi:start="0.0014355115"
       sodipodi:end="3.1431168"
       sodipodi:arc-type="arc"
       d="m 169.96321,-71.484102 a 2.0022416,2.0022416 0 0 1 -1.00366,1.732582 2.0022416,2.0022416 0 0 1 -2.00229,-0.003 2.0022416,2.0022416 0 0 1 -0.99853,-1.735545"
       transform="scale(1,-1)"
       sodipodi:open="true" /><path
       style="fill:none;stroke:#000000;stroke-width:0.353173;stroke-opacity:1"
       id="path7075-97-3"
       sodipodi:type="arc"
       sodipodi:cx="173.09999"
       sodipodi:cy="-71.486977"
       sodipodi:rx="2.0022416"
       sodipodi:ry="2.0022416"
       sodipodi:start="0.0014355115"
       sodipodi:end="3.1431168"
       sodipodi:arc-type="arc"
       d="m 175.10223,-71.484102 a 2.0022416,2.0022416 0 0 1 -1.00366,1.732582 2.0022416,2.0022416 0 0 1 -2.00229,-0.003 2.0022416,2.0022416 0 0 1 -0.99853,-1.735545"
       transform="scale(1,-1)"
       sodipodi:open="true" /><path
       style="fill:none;stroke:#000000;stroke-width:0.353173;stroke-opacity:1"
       id="path7075-97-3-6"
       sodipodi:type="arc"
       sodipodi:cx="178.23907"
       sodipodi:cy="-71.486977"
       sodipodi:rx="2.0022416"
       sodipodi:ry="2.0022416"
       sodipodi:start="0.0014355115"
       sodipodi:end="3.1431168"
       sodipodi:arc-type="arc"
       d="m 180.24131,-71.484102 a 2.0022416,2.0022416 0 0 1 -1.00366,1.732582 2.0022416,2.0022416 0 0 1 -2.00229,-0.003 2.0022416,2.0022416 0 0 1 -0.99852,-1.735545"
       transform="scale(1,-1)"
       sodipodi:open="true" /><path
       style="fill:none;stroke:#000000;stroke-width:0.353173;stroke-opacity:1"
       id="path7075-97-1"
       sodipodi:type="arc"
       sodipodi:cx="-178.23907"
       sodipodi:cy="92.867256"
       sodipodi:rx="2.0022416"
       sodipodi:ry="2.0022416"
       sodipodi:start="0.0014355115"
       sodipodi:end="3.1431168"
       sodipodi:arc-type="arc"
       d="m -176.23684,92.87013 a 2.0022416,2.0022416 0 0 1 -1.00366,1.732583 2.0022416,2.0022416 0 0 1 -2.00229,-0.003 2.0022416,2.0022416 0 0 1 -0.99852,-1.735546"
       transform="scale(-1,1)"
       sodipodi:open="true" /><path
       style="fill:none;stroke:#000000;stroke-width:0.353173;stroke-opacity:1"
       id="path7075-97-3-2"
       sodipodi:type="arc"
       sodipodi:cx="-173.09999"
       sodipodi:cy="92.867256"
       sodipodi:rx="2.0022416"
       sodipodi:ry="2.0022416"
       sodipodi:start="0.0014355115"
       sodipodi:end="3.1431168"
       sodipodi:arc-type="arc"
       d="m -171.09775,92.87013 a 2.0022416,2.0022416 0 0 1 -1.00366,1.732583 2.0022416,2.0022416 0 0 1 -2.00229,-0.003 2.0022416,2.0022416 0 0 1 -0.99853,-1.735546"
       transform="scale(-1,1)"
       sodipodi:open="true" /><path
       style="fill:none;stroke:#000000;stroke-width:0.353173;stroke-opacity:1"
       id="path7075-97-3-6-9"
       sodipodi:type="arc"
       sodipodi:cx="-167.96097"
       sodipodi:cy="93.003899"
       sodipodi:rx="2.0022416"
       sodipodi:ry="2.0022416"
       sodipodi:start="0.0014355115"
       sodipodi:end="3.1431168"
       sodipodi:arc-type="arc"
       d="m -165.95873,93.006773 a 2.0022416,2.0022416 0 0 1 -1.00366,1.732583 2.0022416,2.0022416 0 0 1 -2.00229,-0.003 2.0022416,2.0022416 0 0 1 -0.99853,-1.735546"
       transform="scale(-1,1)"
       sodipodi:open="true" /><path
       style="fill:none;stroke:#000000;stroke-width:0.353173;stroke-opacity:1"
       id="path7075-93"
       sodipodi:type="arc"
       sodipodi:cx="88.340729"
       sodipodi:cy="-66.914787"
       sodipodi:rx="2.0022416"
       sodipodi:ry="2.0022416"
       sodipodi:start="6.2453052"
       sodipodi:end="3.1724294"
       sodipodi:open="true"
       sodipodi:arc-type="arc"
       d="m 90.341534,-66.990614 a 2.0022416,2.0022416 0 0 1 -0.973832,1.794634 2.0022416,2.0022416 0 0 1 -2.041815,0.0072 2.0022416,2.0022416 0 0 1 -0.986448,-1.78773"
       transform="scale(1,-1)" /><path
       style="fill:none;stroke:#000000;stroke-width:0.353173;stroke-opacity:1"
       d="m 24.904103,64.912549 58.284856,-10e-7 v 4.004482 l -58.284856,3e-6"
       id="path8033"
       sodipodi:nodetypes="cccc" /><path
       style="fill:none;stroke:#000000;stroke-width:0.353173;stroke-opacity:1"
       id="path7025-6"
       sodipodi:type="arc"
       sodipodi:cx="195.33023"
       sodipodi:cy="-94.202927"
       sodipodi:rx="4.9364109"
       sodipodi:ry="5.9342208"
       sodipodi:start="1.5696958"
       sodipodi:end="4.7131227"
       sodipodi:arc-type="arc"
       d="m 195.33566,-88.268709 a 4.9364109,5.9342208 0 0 1 -4.27928,-2.964594 4.9364109,5.9342208 0 0 1 -9e-4,-5.937363 4.9364109,5.9342208 0 0 1 4.27837,-2.966484"
       sodipodi:open="true"
       transform="scale(1,-1)" /><path
       style="fill:none;stroke:#000000;stroke-width:0.353173;stroke-opacity:1"
       d="M 195.33024,88.088883 V 82.177118 Z"
       id="path7033-0" /><path
       style="fill:none;stroke:#000000;stroke-width:0.353173;stroke-opacity:1"
       d="m 195.33024,100.13714 v 5.8247 H 24.904099"
       id="path7035-6" /><path
       style="fill:none;stroke:#000000;stroke-width:0.353173;stroke-opacity:1"
       d="M 186.33703,102.36567 H 24.84235"
       id="path7039-2" /><path
       style="fill:none;stroke:#000000;stroke-width:0.353173;stroke-opacity:1"
       d="m 186.33703,102.36567 v -2.22853"
       id="path7041-6" /><path
       style="fill:none;stroke:#000000;stroke-width:0.353173;stroke-opacity:1"
       d="m 186.33703,100.13714 -3.63401,-5.488447 0.004,-0.445765 -0.0649,-1.335669 H 24.744454 25.062303"
       id="path7047-1" /><path
       style="fill:none;stroke:#000000;stroke-width:0.353173;stroke-opacity:1"
       id="path7075-0-2"
       sodipodi:type="arc"
       sodipodi:cx="94.975746"
       sodipodi:cy="97.363037"
       sodipodi:rx="2.0022416"
       sodipodi:ry="2.0022416"
       sodipodi:start="0"
       sodipodi:end="3.1450684"
       sodipodi:open="true"
       sodipodi:arc-type="arc"
       d="m 96.977988,97.363037 a 2.0022416,2.0022416 0 0 1 -1.003131,1.735151 2.0022416,2.0022416 0 0 1 -2.004247,-0.0035 2.0022416,2.0022416 0 0 1 -0.997093,-1.738627" /><circle
       style="fill:none;stroke:#000000;stroke-width:0.353173;stroke-opacity:1"
       id="path7075-93-2"
       cy="-97.439445"
       cx="88.340706"
       r="2.0022416"
       transform="scale(1,-1)" /><path
       style="fill:none;stroke:#000000;stroke-width:0.353173;stroke-opacity:1"
       d="M 24.824957,99.441686 H 83.188945 V 95.437203 H 24.683359"
       id="path8033-8" /><path
       style="fill:none;stroke:#000000;stroke-width:0.353173;stroke-opacity:1"
       d="m 86.338498,66.91479 c 6.635001,30.524661 6.635001,30.524661 6.635001,30.524661"
       id="path9755" /><path
       style="fill:none;stroke:#000000;stroke-width:0.353173;stroke-opacity:1"
       d="m 90.342981,66.91479 6.635015,30.524661"
       id="path9757" /><path
       style="fill:none;stroke:#000000;stroke-width:0.353173;stroke-opacity:1"
       d="m 92.902647,66.91479 6.705894,30.524661"
       id="path9759" /><path
       style="fill:none;stroke:#000000;stroke-width:0.353173;stroke-opacity:1"
       d="m 96.977996,66.91479 6.635024,30.524661"
       id="path9761" /><path
       style="fill:none;stroke:#000000;stroke-width:0.353173;stroke-opacity:1"
       d="m 99.608541,66.91479 6.635029,30.524661"
       id="path9763" /><path
       style="fill:none;stroke:#000000;stroke-width:0.353173;stroke-opacity:1"
       d="m 103.61302,66.91479 6.63503,30.524661"
       id="path9765" /><path
       style="fill:none;stroke:#000000;stroke-width:0.353173;stroke-opacity:1"
       d="m 106.24357,66.91479 6.63503,30.524661"
       id="path9767" /><path
       style="fill:none;stroke:#000000;stroke-width:0.353173;stroke-opacity:1"
       d="m 110.24805,66.91479 6.63504,30.524661"
       id="path9769" /><path
       style="fill:none;stroke:#000000;stroke-width:0.353173;stroke-opacity:1"
       d="m 112.8786,66.91479 6.63501,30.524661"
       id="path9771" /><path
       style="fill:none;stroke:#000000;stroke-width:0.353173;stroke-opacity:1"
       d="m 116.88309,66.91479 6.635,30.524661"
       id="path9773" /><path
       style="fill:none;stroke:#000000;stroke-width:0.353173;stroke-opacity:1"
       d="m 119.51361,66.91479 6.63504,30.524661"
       id="path9775" /><path
       style="fill:none;stroke:#000000;stroke-width:0.353173;stroke-opacity:1"
       d="m 123.51809,66.91479 6.63505,30.524661"
       id="path9777" /><path
       style="fill:none;stroke:#000000;stroke-width:0.353173;stroke-opacity:1"
       d="m 126.14865,66.91479 6.63503,30.524661"
       id="path9779" /><path
       style="fill:none;stroke:#000000;stroke-width:0.353173;stroke-opacity:1"
       d="m 130.15314,66.91479 6.63502,30.524661"
       id="path9781" /><path
       style="fill:none;stroke:#000000;stroke-width:0.353173;stroke-opacity:1"
       d="m 132.78368,66.91479 6.63503,30.524661"
       id="path9783" /><path
       style="fill:none;stroke:#000000;stroke-width:0.353173;stroke-opacity:1"
       d="m 136.78816,66.91479 6.63503,30.524661"
       id="path9785" /><path
       style="fill:none;stroke:#000000;stroke-width:0.353173;stroke-opacity:1"
       d="m 139.41871,66.91479 6.63501,30.524661"
       id="path9787" /><path
       style="fill:none;stroke:#000000;stroke-width:0.353173;stroke-opacity:1"
       d="m 143.42319,66.91479 6.63502,30.524661"
       id="path9789" /><path
       style="fill:none;stroke:#000000;stroke-width:0.353173;stroke-opacity:1"
       d="m 146.05372,66.91479 6.63502,30.524661"
       id="path9791" /><path
       style="fill:none;stroke:#000000;stroke-width:0.353173;stroke-opacity:1"
       d="m 150.05821,66.91479 6.63501,30.524661"
       id="path9793" /><path
       style="fill:none;stroke:#000000;stroke-width:0.353173;stroke-opacity:1"
       d="m 152.68871,66.91479 6.63498,30.524661"
       id="path9795" /><path
       style="fill:none;stroke:#000000;stroke-width:0.353173;stroke-opacity:1"
       d="m 156.69319,66.91479 6.63498,30.524661"
       id="path9797" /><path
       style="fill:none;stroke:#000000;stroke-width:0.353173;stroke-opacity:1"
       d="m 160.81873,71.561888 5.13998,21.444886 v 0"
       id="path9842"
       sodipodi:nodetypes="ccc" /><path
       style="fill:none;stroke:#000000;stroke-width:0.353173;stroke-opacity:1"
       d="m 164.82322,71.561888 5.13998,21.438959"
       id="path9844"
       sodipodi:nodetypes="cc" /><path
       style="fill:none;stroke:#000000;stroke-width:0.353173;stroke-opacity:1"
       d="m 165.95871,71.486972 5.13904,21.383155"
       id="path9846" /><path
       style="fill:none;stroke:#000000;stroke-width:0.353173;stroke-opacity:1"
       d="m 169.9632,71.484098 5.13903,21.383156"
       id="path9848" /><path
       style="fill:none;stroke:#000000;stroke-width:0.353173;stroke-opacity:1"
       d="m 171.09775,71.486972 5.13908,21.383155"
       id="path9850" /><path
       style="fill:none;stroke:#000000;stroke-width:0.353173;stroke-opacity:1"
       d="m 175.10223,71.484098 5.13907,21.380104"
       id="path9852" /><path
       style="fill:none;stroke:#000000;stroke-width:0.353173;stroke-opacity:1"
       d="m 83.188959,58.386104 c 0,0 1.433978,0.43655 4.294007,-2.098498 2.860015,-2.535049 9.49503,-2.535049 9.49503,-2.535049 l 81.261084,0.0063 h 8.09795 c 7.22886,0 8.99321,1.8e-5 15.25909,4.633547"
       id="path9856"
       sodipodi:nodetypes="csccsc" /><path
       style="fill:none;stroke:#000000;stroke-width:0.330529;stroke-opacity:1"
       id="path12233"
       sodipodi:type="arc"
       sodipodi:cx="251.55217"
       sodipodi:cy="82.177116"
       sodipodi:rx="27.767738"
       sodipodi:ry="16.157616"
       sodipodi:start="1.5697493"
       sodipodi:end="1.5696702"
       sodipodi:arc-type="arc"
       d="M 251.58124,98.334723 A 27.767738,16.157616 0 0 1 223.78445,82.194353 27.767738,16.157616 0 0 1 251.522,66.01951 27.767738,16.157616 0 0 1 279.31989,82.15924 27.767738,16.157616 0 0 1 251.58344,98.334722"
       sodipodi:open="true" /><path
       style="fill:none;stroke:#000000;stroke-width:0.353173;stroke-opacity:1"
       d="m 201.59612,58.392378 c 0,0 8.07246,5.567203 14.39064,5.824713 14.29694,0.5827 13.98224,0.69546 27.08827,0.695458 l 8.47714,-10e-7"
       id="path12239"
       sodipodi:nodetypes="cscc" /><path
       style="fill:none;stroke:#000000;stroke-width:0.353173;stroke-opacity:1"
       id="path7075-93-5"
       sodipodi:type="arc"
       sodipodi:cx="94.975746"
       sodipodi:cy="-66.914787"
       sodipodi:rx="2.0022416"
       sodipodi:ry="2.0022416"
       sodipodi:start="6.2453052"
       sodipodi:end="3.1724294"
       sodipodi:open="true"
       sodipodi:arc-type="arc"
       d="m 96.976551,-66.990614 a 2.0022416,2.0022416 0 0 1 -0.973832,1.794634 2.0022416,2.0022416 0 0 1 -2.041815,0.0072 2.0022416,2.0022416 0 0 1 -0.986448,-1.78773"
       transform="scale(1,-1)" /><path
       style="fill:none;stroke:#000000;stroke-width:0.353173;stroke-opacity:1"
       id="path7075-93-0"
       sodipodi:type="arc"
       sodipodi:cx="101.61078"
       sodipodi:cy="-66.914787"
       sodipodi:rx="2.0022416"
       sodipodi:ry="2.0022416"
       sodipodi:start="6.2453052"
       sodipodi:end="3.1724294"
       sodipodi:open="true"
       sodipodi:arc-type="arc"
       d="m 103.61158,-66.990614 a 2.0022416,2.0022416 0 0 1 -0.97383,1.794634 2.0022416,2.0022416 0 0 1 -2.04181,0.0072 2.0022416,2.0022416 0 0 1 -0.986451,-1.78773"
       transform="scale(1,-1)" /><path
       style="fill:none;stroke:#000000;stroke-width:0.353173;stroke-opacity:1"
       id="path7075-93-3"
       sodipodi:type="arc"
       sodipodi:cx="108.24581"
       sodipodi:cy="-66.914787"
       sodipodi:rx="2.0022416"
       sodipodi:ry="2.0022416"
       sodipodi:start="6.2453052"
       sodipodi:end="3.1724294"
       sodipodi:open="true"
       sodipodi:arc-type="arc"
       d="m 110.24662,-66.990614 a 2.0022416,2.0022416 0 0 1 -0.97384,1.794634 2.0022416,2.0022416 0 0 1 -2.04181,0.0072 2.0022416,2.0022416 0 0 1 -0.98645,-1.78773"
       transform="scale(1,-1)" /><path
       style="fill:none;stroke:#000000;stroke-width:0.353173;stroke-opacity:1"
       id="path7075-93-6"
       sodipodi:type="arc"
       sodipodi:cx="114.88085"
       sodipodi:cy="-66.914787"
       sodipodi:rx="2.0022416"
       sodipodi:ry="2.0022416"
       sodipodi:start="6.2453052"
       sodipodi:end="3.1724294"
       sodipodi:open="true"
       sodipodi:arc-type="arc"
       d="m 116.88166,-66.990614 a 2.0022416,2.0022416 0 0 1 -0.97384,1.794634 2.0022416,2.0022416 0 0 1 -2.04181,0.0072 2.0022416,2.0022416 0 0 1 -0.98645,-1.78773"
       transform="scale(1,-1)" /><path
       style="fill:none;stroke:#000000;stroke-width:0.353173;stroke-opacity:1"
       id="path7075-93-1"
       sodipodi:type="arc"
       sodipodi:cx="121.51586"
       sodipodi:cy="-66.914787"
       sodipodi:rx="2.0022416"
       sodipodi:ry="2.0022416"
       sodipodi:start="6.2453052"
       sodipodi:end="3.1724294"
       sodipodi:open="true"
       sodipodi:arc-type="arc"
       d="m 123.51667,-66.990614 a 2.0022416,2.0022416 0 0 1 -0.97384,1.794634 2.0022416,2.0022416 0 0 1 -2.04181,0.0072 2.0022416,2.0022416 0 0 1 -0.98645,-1.78773"
       transform="scale(1,-1)" /><path
       style="fill:none;stroke:#000000;stroke-width:0.353173;stroke-opacity:1"
       id="path7075-93-06"
       sodipodi:type="arc"
       sodipodi:cx="128.15089"
       sodipodi:cy="-66.914787"
       sodipodi:rx="2.0022416"
       sodipodi:ry="2.0022416"
       sodipodi:start="6.2453052"
       sodipodi:end="3.1724294"
       sodipodi:open="true"
       sodipodi:arc-type="arc"
       d="m 130.1517,-66.990614 a 2.0022416,2.0022416 0 0 1 -0.97383,1.794634 2.0022416,2.0022416 0 0 1 -2.04182,0.0072 2.0022416,2.0022416 0 0 1 -0.98645,-1.78773"
       transform="scale(1,-1)" /><path
       style="fill:none;stroke:#000000;stroke-width:0.353173;stroke-opacity:1"
       id="path7075-93-32"
       sodipodi:type="arc"
       sodipodi:cx="134.78592"
       sodipodi:cy="-66.914787"
       sodipodi:rx="2.0022416"
       sodipodi:ry="2.0022416"
       sodipodi:start="6.2453052"
       sodipodi:end="3.1724294"
       sodipodi:open="true"
       sodipodi:arc-type="arc"
       d="m 136.78672,-66.990614 a 2.0022416,2.0022416 0 0 1 -0.97383,1.794634 2.0022416,2.0022416 0 0 1 -2.04181,0.0072 2.0022416,2.0022416 0 0 1 -0.98645,-1.78773"
       transform="scale(1,-1)" /><path
       style="fill:none;stroke:#000000;stroke-width:0.353173;stroke-opacity:1"
       id="path7075-93-061"
       sodipodi:type="arc"
       sodipodi:cx="141.42096"
       sodipodi:cy="-66.914787"
       sodipodi:rx="2.0022416"
       sodipodi:ry="2.0022416"
       sodipodi:start="6.2453052"
       sodipodi:end="3.1724294"
       sodipodi:open="true"
       sodipodi:arc-type="arc"
       d="m 143.42176,-66.990614 a 2.0022416,2.0022416 0 0 1 -0.97383,1.794634 2.0022416,2.0022416 0 0 1 -2.04181,0.0072 2.0022416,2.0022416 0 0 1 -0.98645,-1.78773"
       transform="scale(1,-1)" /><path
       style="fill:none;stroke:#000000;stroke-width:0.353173;stroke-opacity:1"
       id="path7075-93-55"
       sodipodi:type="arc"
       sodipodi:cx="148.05597"
       sodipodi:cy="-66.914787"
       sodipodi:rx="2.0022416"
       sodipodi:ry="2.0022416"
       sodipodi:start="6.2453052"
       sodipodi:end="3.1724294"
       sodipodi:open="true"
       sodipodi:arc-type="arc"
       d="m 150.05677,-66.990614 a 2.0022416,2.0022416 0 0 1 -0.97383,1.794634 2.0022416,2.0022416 0 0 1 -2.04181,0.0072 2.0022416,2.0022416 0 0 1 -0.98645,-1.78773"
       transform="scale(1,-1)" /><path
       style="fill:none;stroke:#000000;stroke-width:0.353173;stroke-opacity:1"
       id="path7075-93-4"
       sodipodi:type="arc"
       sodipodi:cx="154.69096"
       sodipodi:cy="-66.914787"
       sodipodi:rx="2.0022416"
       sodipodi:ry="2.0022416"
       sodipodi:start="6.2453052"
       sodipodi:end="3.1724294"
       sodipodi:open="true"
       sodipodi:arc-type="arc"
       d="m 156.69177,-66.990614 a 2.0022416,2.0022416 0 0 1 -0.97383,1.794634 2.0022416,2.0022416 0 0 1 -2.04182,0.0072 2.0022416,2.0022416 0 0 1 -0.98645,-1.78773"
       transform="scale(1,-1)" /><path
       style="fill:none;stroke:#000000;stroke-width:0.353173;stroke-opacity:1"
       id="path7075-93-7"
       sodipodi:type="arc"
       sodipodi:cx="162.82097"
       sodipodi:cy="-71.56189"
       sodipodi:rx="2.0022416"
       sodipodi:ry="2.0022416"
       sodipodi:start="6.2453052"
       sodipodi:end="3.1724294"
       sodipodi:open="true"
       sodipodi:arc-type="arc"
       d="m 164.82177,-71.637717 a 2.0022416,2.0022416 0 0 1 -0.97383,1.794634 2.0022416,2.0022416 0 0 1 -2.04181,0.0072 2.0022416,2.0022416 0 0 1 -0.98645,-1.78773"
       transform="scale(1,-1)" /><path
       style="fill:none;stroke:#000000;stroke-width:0.353173;stroke-opacity:1"
       id="path7075-93-5-6"
       sodipodi:type="arc"
       sodipodi:cx="101.61078"
       sodipodi:cy="97.439445"
       sodipodi:rx="2.0022416"
       sodipodi:ry="2.0022416"
       sodipodi:start="6.2453052"
       sodipodi:end="3.1724294"
       sodipodi:open="true"
       sodipodi:arc-type="arc"
       d="m 103.61158,97.363619 a 2.0022416,2.0022416 0 0 1 -0.97383,1.794633 2.0022416,2.0022416 0 0 1 -2.04181,0.0072 2.0022416,2.0022416 0 0 1 -0.986451,-1.78773" /><path
       style="fill:none;stroke:#000000;stroke-width:0.353173;stroke-opacity:1"
       id="path7075-93-0-5"
       sodipodi:type="arc"
       sodipodi:cx="108.24581"
       sodipodi:cy="97.439445"
       sodipodi:rx="2.0022416"
       sodipodi:ry="2.0022416"
       sodipodi:start="6.2453052"
       sodipodi:end="3.1724294"
       sodipodi:open="true"
       sodipodi:arc-type="arc"
       d="m 110.24662,97.363619 a 2.0022416,2.0022416 0 0 1 -0.97384,1.794633 2.0022416,2.0022416 0 0 1 -2.04181,0.0072 2.0022416,2.0022416 0 0 1 -0.98645,-1.78773" /><path
       style="fill:none;stroke:#000000;stroke-width:0.353173;stroke-opacity:1"
       id="path7075-93-3-6"
       sodipodi:type="arc"
       sodipodi:cx="114.88085"
       sodipodi:cy="97.439445"
       sodipodi:rx="2.0022416"
       sodipodi:ry="2.0022416"
       sodipodi:start="6.2453052"
       sodipodi:end="3.1724294"
       sodipodi:open="true"
       sodipodi:arc-type="arc"
       d="m 116.88166,97.363619 a 2.0022416,2.0022416 0 0 1 -0.97384,1.794633 2.0022416,2.0022416 0 0 1 -2.04181,0.0072 2.0022416,2.0022416 0 0 1 -0.98645,-1.78773" /><path
       style="fill:none;stroke:#000000;stroke-width:0.353173;stroke-opacity:1"
       id="path7075-93-6-9"
       sodipodi:type="arc"
       sodipodi:cx="121.51588"
       sodipodi:cy="97.439445"
       sodipodi:rx="2.0022416"
       sodipodi:ry="2.0022416"
       sodipodi:start="6.2453052"
       sodipodi:end="3.1724294"
       sodipodi:open="true"
       sodipodi:arc-type="arc"
       d="m 123.51668,97.363619 a 2.0022416,2.0022416 0 0 1 -0.97383,1.794633 2.0022416,2.0022416 0 0 1 -2.04181,0.0072 2.0022416,2.0022416 0 0 1 -0.98645,-1.78773" /><path
       style="fill:none;stroke:#000000;stroke-width:0.353173;stroke-opacity:1"
       id="path7075-93-1-3"
       sodipodi:type="arc"
       sodipodi:cx="128.15089"
       sodipodi:cy="97.439445"
       sodipodi:rx="2.0022416"
       sodipodi:ry="2.0022416"
       sodipodi:start="6.2453052"
       sodipodi:end="3.1724294"
       sodipodi:open="true"
       sodipodi:arc-type="arc"
       d="m 130.1517,97.363619 a 2.0022416,2.0022416 0 0 1 -0.97383,1.794633 2.0022416,2.0022416 0 0 1 -2.04182,0.0072 2.0022416,2.0022416 0 0 1 -0.98645,-1.78773" /><path
       style="fill:none;stroke:#000000;stroke-width:0.353173;stroke-opacity:1"
       id="path7075-93-06-7"
       sodipodi:type="arc"
       sodipodi:cx="134.78592"
       sodipodi:cy="97.439445"
       sodipodi:rx="2.0022416"
       sodipodi:ry="2.0022416"
       sodipodi:start="6.2453052"
       sodipodi:end="3.1724294"
       sodipodi:open="true"
       sodipodi:arc-type="arc"
       d="m 136.78672,97.363619 a 2.0022416,2.0022416 0 0 1 -0.97383,1.794633 2.0022416,2.0022416 0 0 1 -2.04181,0.0072 2.0022416,2.0022416 0 0 1 -0.98645,-1.78773" /><path
       style="fill:none;stroke:#000000;stroke-width:0.353173;stroke-opacity:1"
       id="path7075-93-32-4"
       sodipodi:type="arc"
       sodipodi:cx="141.42096"
       sodipodi:cy="97.439445"
       sodipodi:rx="2.0022416"
       sodipodi:ry="2.0022416"
       sodipodi:start="6.2453052"
       sodipodi:end="3.1724294"
       sodipodi:open="true"
       sodipodi:arc-type="arc"
       d="m 143.42176,97.363619 a 2.0022416,2.0022416 0 0 1 -0.97383,1.794633 2.0022416,2.0022416 0 0 1 -2.04181,0.0072 2.0022416,2.0022416 0 0 1 -0.98645,-1.78773" /><path
       style="fill:none;stroke:#000000;stroke-width:0.353173;stroke-opacity:1"
       id="path7075-93-061-5"
       sodipodi:type="arc"
       sodipodi:cx="148.05598"
       sodipodi:cy="97.439445"
       sodipodi:rx="2.0022416"
       sodipodi:ry="2.0022416"
       sodipodi:start="6.2453052"
       sodipodi:end="3.1724294"
       sodipodi:open="true"
       sodipodi:arc-type="arc"
       d="m 150.05679,97.363619 a 2.0022416,2.0022416 0 0 1 -0.97383,1.794633 2.0022416,2.0022416 0 0 1 -2.04182,0.0072 2.0022416,2.0022416 0 0 1 -0.98645,-1.78773" /><path
       style="fill:none;stroke:#000000;stroke-width:0.353173;stroke-opacity:1"
       id="path7075-93-55-2"
       sodipodi:type="arc"
       sodipodi:cx="154.69099"
       sodipodi:cy="97.439445"
       sodipodi:rx="2.0022416"
       sodipodi:ry="2.0022416"
       sodipodi:start="6.2453052"
       sodipodi:end="3.1724294"
       sodipodi:open="true"
       sodipodi:arc-type="arc"
       d="m 156.6918,97.363619 a 2.0022416,2.0022416 0 0 1 -0.97383,1.794633 2.0022416,2.0022416 0 0 1 -2.04182,0.0072 2.0022416,2.0022416 0 0 1 -0.98645,-1.78773" /><path
       style="fill:none;stroke:#000000;stroke-width:0.353173;stroke-opacity:1"
       id="path7075-93-4-5"
       sodipodi:type="arc"
       sodipodi:cx="161.32599"
       sodipodi:cy="97.439445"
       sodipodi:rx="2.0022416"
       sodipodi:ry="2.0022416"
       sodipodi:start="6.2453052"
       sodipodi:end="3.1724294"
       sodipodi:open="true"
       sodipodi:arc-type="arc"
       d="m 163.32679,97.363619 a 2.0022416,2.0022416 0 0 1 -0.97383,1.794633 2.0022416,2.0022416 0 0 1 -2.04181,0.0072 2.0022416,2.0022416 0 0 1 -0.98645,-1.78773" /><path
       style="fill:#ffff00;stroke:#000000;stroke-width:0.353173;stroke-opacity:1"
       d="M 24.9041,58.392397 V 105.96184"
       id="path13413" /><path
       style="fill:#ff8080;fill-opacity:1;stroke:none;stroke-width:0.176587;stroke-opacity:1"
       d="m 25.234495,104.11286 v -1.50079 l 80.655925,-0.0443 80.65591,-0.0443 0.0529,-1.22066 0.0529,-1.22067 -1.86288,-2.795774 c -1.80196,-2.704342 -1.86288,-2.827564 -1.86288,-3.767905 v -0.972134 h -1.22421 c -1.01261,0 -1.24034,-0.05341 -1.31758,-0.309027 -0.17646,-0.584025 -4.87485,-20.221099 -4.87485,-20.374619 0,-0.08447 1.66875,-0.153571 3.70832,-0.153571 h 3.70832 v -0.927941 c 0,-0.884476 0.0872,-1.058577 1.86172,-3.717148 l 1.86171,-2.789209 -0.0517,-1.271424 -0.0517,-1.27142 -80.65591,-0.04434 -80.655925,-0.04434 v -1.500791 -1.500796 h 84.938145 84.93814 v 2.619846 2.619849 l -1.02441,0.284809 c -1.38414,0.384829 -2.49783,1.382585 -3.25132,2.912877 -0.54468,1.106209 -0.5804,1.29308 -0.5804,3.036823 0,1.665614 0.0513,1.967832 0.49484,2.917603 0.27217,0.582735 0.78868,1.367006 1.14782,1.742824 0.69581,0.728141 2.15968,1.51945 2.81615,1.5223 l 0.39732,0.0018 v 5.823995 5.823992 l -0.48561,0.09801 c -0.26709,0.0539 -0.91278,0.308776 -1.43488,0.566387 -2.37414,1.171444 -3.6179,4.636783 -2.74712,7.654001 0.5801,2.01005 2.33406,3.782903 3.9581,4.000733 l 0.70951,0.0951 v 2.62555 2.62555 H 110.17264 25.234495 Z"
       id="path13664" /><path
       style="fill:#ff8080;fill-opacity:1;stroke:none;stroke-width:0.124865;stroke-opacity:1"
       d="M 25.126462,82.165764 V 71.677058 h 30.998217 30.998217 l 2.225146,10.27019 c 1.223833,5.648609 2.252923,10.368525 2.286874,10.48871 0.05867,0.207719 -1.58301,0.218515 -33.223366,0.218515 H 25.126462 Z"
       id="path13666" /><path
       style="fill:#ff8080;fill-opacity:1;stroke:none;stroke-width:0.124865;stroke-opacity:1"
       d="M 96.132813,92.373524 C 95.944515,91.609388 91.679811,71.89629 91.679811,71.790052 c 0,-0.07378 0.407566,-0.108566 1.017249,-0.08683 l 1.017248,0.03626 2.22373,10.114113 c 1.223049,5.56276 2.258772,10.268633 2.301608,10.457492 l 0.07788,0.34338 h -1.057743 c -0.993162,0 -1.061967,-0.01716 -1.126972,-0.280949 z"
       id="path13668" /><path
       style="fill:#ff8080;fill-opacity:1;stroke:none;stroke-width:0.124865;stroke-opacity:1"
       d="m 105.37688,92.311093 c -0.0382,-0.188859 -1.05657,-4.883756 -2.26318,-10.433098 -1.20661,-5.549343 -2.19384,-10.114742 -2.19384,-10.145327 0,-0.03059 0.78665,-0.05561 1.74812,-0.05561 0.96147,0 1.74812,0.02133 1.74812,0.04739 0,0.02606 1.01141,4.696564 2.24758,10.378887 1.23617,5.682323 2.24758,10.380914 2.24758,10.441317 0,0.0604 -0.77963,0.109823 -1.73251,0.109823 h -1.73251 z"
       id="path13670" /><path
       style="fill:#ff8080;fill-opacity:1;stroke:none;stroke-width:0.124865;stroke-opacity:1"
       d="m 113.85329,82.321527 c -1.23075,-5.682768 -2.26222,-10.402542 -2.29215,-10.488388 -0.0408,-0.116929 0.21306,-0.156081 1.01188,-0.156081 0.90783,0 1.07584,0.03246 1.13047,0.218515 0.13405,0.456487 4.44782,20.422718 4.44782,20.586696 0,0.132472 -0.23768,0.17213 -1.03014,0.171886 l -1.03014,-3.21e-4 z"
       id="path13672" /><path
       style="fill:#ff8080;fill-opacity:1;stroke:none;stroke-width:0.353553;stroke-opacity:1"
       d=""
       id="path13674"
       transform="scale(0.26458333)" /><path
       style="fill:#ff8080;fill-opacity:1;stroke:none;stroke-width:0.124865;stroke-opacity:1"
       d="m 122.70851,92.498392 c -0.0302,-0.08585 -1.04144,-4.707435 -2.24711,-10.270194 -1.20566,-5.56276 -2.22316,-10.214697 -2.26111,-10.337633 -0.0632,-0.204802 0.0224,-0.22049 1.02173,-0.187299 l 1.09072,0.03622 2.22388,10.238977 c 1.22313,5.631438 2.24867,10.337308 2.27897,10.457493 0.0492,0.195199 -0.0573,0.218515 -0.99851,0.218515 -0.73029,0 -1.07046,-0.04789 -1.10857,-0.156081 z"
       id="path13676" /><path
       style="fill:#ff8080;fill-opacity:1;stroke:none;stroke-width:0.124865;stroke-opacity:1"
       d="m 129.33103,92.498392 c -0.0277,-0.08585 -1.03975,-4.73553 -2.24902,-10.332628 -1.20927,-5.597099 -2.22343,-10.248955 -2.25368,-10.337457 -0.0427,-0.124942 0.18799,-0.152853 1.03207,-0.124864 l 1.08707,0.03605 2.19813,10.114113 c 1.20897,5.56276 2.23705,10.268633 2.28461,10.457492 l 0.0865,0.34338 h -1.06765 c -0.74403,0 -1.08292,-0.04731 -1.118,-0.156081 z"
       id="path13678" /><path
       style="fill:#ff8080;fill-opacity:1;stroke:none;stroke-width:0.353553;stroke-opacity:1"
       d=""
       id="path13680"
       transform="scale(0.26458333)" /><path
       style="fill:#ff8080;fill-opacity:1;stroke:none;stroke-width:0.124865;stroke-opacity:1"
       d="m 135.95975,92.435958 c -0.13406,-0.456487 -4.44782,-20.422722 -4.44782,-20.586697 0,-0.132472 0.23768,-0.172129 1.03014,-0.171886 l 1.03014,3.18e-4 2.23773,10.332307 c 1.23076,5.682772 2.26223,10.402546 2.29216,10.488392 0.0408,0.116928 -0.21306,0.156081 -1.01188,0.156081 -0.90784,0 -1.07584,-0.03246 -1.13047,-0.218515 z"
       id="path13682" /><path
       style="fill:#ff8080;fill-opacity:1;stroke:none;stroke-width:0.124865;stroke-opacity:1"
       d="m 142.45446,91.811629 c -0.55101,-2.437626 -4.32466,-19.893142 -4.32466,-20.004279 0,-0.08004 0.40052,-0.130292 1.03834,-0.130292 h 1.03834 l 2.23036,10.27019 c 1.22669,5.648609 2.25501,10.368525 2.28516,10.48871 0.049,0.195326 -0.0583,0.218515 -1.01111,0.218515 h -1.06591 z"
       id="path13684" /><path
       style="fill:#ff8080;fill-opacity:1;stroke:none;stroke-width:0.124865;stroke-opacity:1"
       d="m 149.24284,92.602857 c 0,-0.0284 -0.98669,-4.593787 -2.19263,-10.145327 -1.20595,-5.551543 -2.22438,-10.248233 -2.26319,-10.437093 l -0.0706,-0.343379 h 1.07697 c 0.59232,0 1.07696,0.03115 1.07696,0.06925 0,0.03809 1.01141,4.720647 2.24758,10.405679 1.23617,5.685032 2.24758,10.373783 2.24758,10.419452 0,0.04566 -0.47761,0.08303 -1.06136,0.08303 -0.58374,0 -1.06135,-0.02324 -1.06135,-0.05162 z"
       id="path13686" /><path
       style="fill:#ff8080;fill-opacity:1;stroke:none;stroke-width:0.353553;stroke-opacity:1"
       d=""
       id="path13688"
       transform="scale(0.26458333)" /><path
       style="fill:#ff8080;fill-opacity:1;stroke:none;stroke-width:0.124865;stroke-opacity:1"
       d="m 153.67639,82.384279 c -1.2267,-5.648606 -2.25502,-10.368525 -2.28516,-10.488706 -0.049,-0.195284 0.0582,-0.218515 1.00758,-0.218515 0.99797,0 1.06658,0.01702 1.13161,0.280945 0.18267,0.741289 4.45301,20.475571 4.45301,20.578426 0,0.06492 -0.46726,0.118044 -1.03835,0.118044 h -1.03834 z"
       id="path13690" /><path
       style="fill:#ff8080;fill-opacity:1;stroke:none;stroke-width:0.0312164;stroke-opacity:1"
       d="m 175.24872,92.631061 c -0.009,-0.03005 -1.14642,-4.753477 -2.5266,-10.496514 l -2.50942,-10.441883 0.35914,-0.0088 c 0.19752,-0.0048 0.363,-0.0048 0.36774,0 0.008,0.0087 4.99639,20.747761 5.0305,20.916009 l 0.0174,0.08585 h -0.36079 c -0.31625,0 -0.36291,-0.0067 -0.37797,-0.05463 z"
       id="path13698" /><path
       style="fill:#ffe680;fill-opacity:1;stroke:none;stroke-width:0.0882933;stroke-opacity:1"
       d="m 87.857312,99.130903 c -0.73466,-0.262203 -1.172245,-0.775106 -1.270046,-1.488639 -0.151059,-1.102102 0.912808,-2.144892 2.000726,-1.96109 0.527659,0.08915 1.091606,0.496152 1.308613,0.944428 0.206027,0.425594 0.247292,1.052696 0.09576,1.455299 -0.159023,0.422519 -0.702083,0.904212 -1.179114,1.045873 -0.520514,0.154577 -0.534231,0.154637 -0.955938,0.0041 z"
       id="path14634" /><path
       style="fill:#ffe680;fill-opacity:1;stroke:none;stroke-width:0.0882933;stroke-opacity:1"
       d="M 25.102055,97.446524 V 95.636512 H 54.018107 82.93416 v 1.810012 1.810013 H 54.018107 25.102055 Z"
       id="path14636" /><path
       style="fill:#ffe680;fill-opacity:1;stroke:none;stroke-width:0.0882933;stroke-opacity:1"
       d="M 25.102055,66.941193 V 65.175327 H 54.018107 82.93416 v 1.765866 1.765865 H 54.018107 25.102055 Z"
       id="path14638" /><path
       style="fill:#ff8080;fill-opacity:1;stroke:none;stroke-width:0.0882933;stroke-opacity:1"
       d="m 109.42215,92.601787 c 0,-0.01801 -1.01317,-4.691651 -2.25148,-10.385855 -1.23832,-5.694204 -2.25148,-10.388928 -2.25148,-10.432718 0,-0.04429 0.47626,-0.06862 1.07329,-0.05483 l 1.07328,0.02479 2.09187,9.623969 c 1.15054,5.293182 2.17272,9.991487 2.27152,10.440681 l 0.17963,0.816713 h -1.09332 c -0.60132,0 -1.09331,-0.01473 -1.09331,-0.03274 z"
       id="path14922" /><path
       style="fill:#ffe680;fill-opacity:1;stroke:#000000;stroke-width:0.353173;stroke-opacity:1"
       d="m 86.338498,66.91479 c 0,0 -2.7e-5,-2.002242 2.002228,-2.002242 2.002255,0 2.002255,2.002242 2.002255,2.002242 l 6.635015,30.44555 c 0,0 0.07088,2.014591 -2.002242,2.00494 -2.073107,-0.0093 -2.073107,-2.00494 -2.073107,-2.00494 L 86.338498,66.91479 v 0"
       id="path14978" /><path
       style="fill:#ffe680;fill-opacity:1;stroke:#000000;stroke-width:0.353173;stroke-opacity:1"
       d="m 92.973513,66.954346 c 0,0 -2.7e-5,-2.002242 2.002228,-2.002242 2.002255,0 2.002255,2.002242 2.002255,2.002242 l 6.635014,30.44555 c 0,0 0.0709,2.014586 -2.00224,2.004935 -2.073109,-0.0093 -2.073109,-2.004935 -2.073109,-2.004935 l -6.564148,-30.44555 v 0"
       id="path14978-7" /><path
       style="fill:#ffe680;fill-opacity:1;stroke:#000000;stroke-width:0.353173;stroke-opacity:1"
       d="m 99.643981,66.954345 c 0,0 -2.7e-5,-2.002242 2.002229,-2.002242 2.00225,0 2.00225,2.002242 2.00225,2.002242 l 6.63502,30.44555 c 0,0 0.0709,2.014587 -2.00224,2.004936 -2.07311,-0.0093 -2.07311,-2.004936 -2.07311,-2.004936 l -6.564149,-30.44555 v 0"
       id="path14978-4" /><path
       style="fill:#ffe680;fill-opacity:1;stroke:#000000;stroke-width:0.353173;stroke-opacity:1"
       d="m 106.24358,66.954345 c 0,0 -2e-5,-2.002242 2.00223,-2.002242 2.00226,0 2.00226,2.002242 2.00226,2.002242 l 6.63501,30.44555 c 0,0 0.0709,2.014587 -2.00224,2.004936 -2.07311,-0.0093 -2.07311,-2.004936 -2.07311,-2.004936 l -6.56415,-30.44555 v 0"
       id="path14978-43" /><path
       style="fill:#ffe680;fill-opacity:1;stroke:#000000;stroke-width:0.353173;stroke-opacity:1"
       d="m 112.91402,66.954345 c 0,0 -2e-5,-2.002242 2.00223,-2.002242 2.00226,0 2.00226,2.002242 2.00226,2.002242 l 6.63501,30.44555 c 0,0 0.0709,2.014587 -2.00224,2.004936 -2.07311,-0.0093 -2.07311,-2.004936 -2.07311,-2.004936 l -6.56415,-30.44555 v 0"
       id="path14978-0" /><path
       style="fill:#ffe680;fill-opacity:1;stroke:#000000;stroke-width:0.353173;stroke-opacity:1"
       d="m 119.51362,66.954345 c 0,0 -2e-5,-2.002242 2.00223,-2.002242 2.00226,0 2.00226,2.002242 2.00226,2.002242 l 6.63501,30.44555 c 0,0 0.0709,2.014587 -2.00224,2.004936 -2.07311,-0.0093 -2.07311,-2.004936 -2.07311,-2.004936 l -6.56415,-30.44555 v 0"
       id="path14978-78" /><path
       style="fill:#ffe680;fill-opacity:1;stroke:#000000;stroke-width:0.353173;stroke-opacity:1"
       d="m 126.18409,66.954345 c 0,0 -2e-5,-2.002242 2.00223,-2.002242 2.00226,0 2.00226,2.002242 2.00226,2.002242 l 6.63501,30.44555 c 0,0 0.0709,2.014587 -2.00224,2.004936 -2.07311,-0.0093 -2.07311,-2.004936 -2.07311,-2.004936 l -6.56415,-30.44555 v 0"
       id="path14978-6" /><path
       style="fill:#ffe680;fill-opacity:1;stroke:#000000;stroke-width:0.353173;stroke-opacity:1"
       d="m 132.78369,66.993901 c 0,0 -2e-5,-2.002242 2.00223,-2.002242 2.00226,0 2.00226,2.002242 2.00226,2.002242 l 6.63501,30.44555 c 0,0 0.0709,2.014595 -2.00224,2.004944 -2.07311,-0.0093 -2.07311,-2.004944 -2.07311,-2.004944 l -6.56415,-30.44555 v 0"
       id="path14978-8" /><path
       style="fill:#ffe680;fill-opacity:1;stroke:#000000;stroke-width:0.353173;stroke-opacity:1"
       d="m 139.41871,66.91479 c 0,0 -3e-5,-2.002242 2.00223,-2.002242 2.00225,0 2.00225,2.002242 2.00225,2.002242 l 6.63502,30.44555 c 0,0 0.0709,2.014591 -2.00225,2.00494 -2.0731,-0.0093 -2.0731,-2.00494 -2.0731,-2.00494 l -6.56415,-30.44555 v 0"
       id="path14978-84" /><path
       style="fill:#ffe680;fill-opacity:1;stroke:#000000;stroke-width:0.353173;stroke-opacity:1"
       d="m 146.08915,66.954345 c 0,0 -3e-5,-2.002242 2.00223,-2.002242 2.00225,0 2.00225,2.002242 2.00225,2.002242 l 6.63502,30.44555 c 0,0 0.0709,2.014587 -2.00224,2.004936 -2.07311,-0.0093 -2.07311,-2.004936 -2.07311,-2.004936 l -6.56415,-30.44555 v 0"
       id="path14978-3" /><path
       style="fill:#ffe680;fill-opacity:1;stroke:#000000;stroke-width:0.353173;stroke-opacity:1"
       d="m 152.72412,66.954345 c 0,0 -2e-5,-2.002242 2.00223,-2.002242 2.00226,0 2.00226,2.002242 2.00226,2.002242 l 6.63501,30.44555 c 0,0 0.0709,2.014587 -2.00224,2.004936 -2.07311,-0.0093 -2.07311,-2.004936 -2.07311,-2.004936 l -6.56415,-30.44555 v 0"
       id="path14978-1" /><path
       style="fill:#ff8080;fill-opacity:1;stroke:none;stroke-width:0.124865;stroke-opacity:1"
       d="m 102.79285,92.585216 c 0,-0.03809 -1.01141,-4.720643 -2.24758,-10.405675 -1.236173,-5.685032 -2.247583,-10.373784 -2.247583,-10.419452 0,-0.04567 0.47761,-0.08303 1.061356,-0.08303 0.583745,0 1.061357,0.02504 1.061357,0.05561 0,0.03059 0.98722,4.595984 2.19383,10.145327 1.20661,5.549342 2.22505,10.244239 2.26319,10.433098 l 0.0694,0.34338 h -1.07696 c -0.59233,0 -1.07697,-0.03119 -1.07697,-0.06926 z"
       id="path15674" /><path
       style="fill:#ffe680;fill-opacity:1;stroke:#000000;stroke-width:0.353173;stroke-opacity:1"
       d="m 165.95871,71.490024 c 0,0 0.12601,-2.005289 2.00225,-2.005289 1.87627,0 2.00224,1.999363 2.00224,1.999363 l 5.13903,21.383156 c 0,0 -0.16852,2.007961 -2.00224,2.00224 -1.83371,-0.0057 -2.00224,-1.999369 -2.00224,-1.999369 l -5.13904,-21.383153"
       id="path16614" /><path
       style="fill:#ffe680;fill-opacity:1;stroke:#000000;stroke-width:0.353173;stroke-opacity:1"
       d="m 160.81729,71.643641 c 0,0 0.12601,-2.005289 2.00224,-2.005289 1.87628,0 2.00224,1.999364 2.00224,1.999364 l 5.13904,21.383155 c 0,0 -0.16852,2.007961 -2.00224,2.00224 -1.83371,-0.0057 -2.00225,-1.999369 -2.00225,-1.999369 L 160.81729,71.64059"
       id="path16614-6" /><path
       style="fill:#ffe680;fill-opacity:1;stroke:#000000;stroke-width:0.353173;stroke-opacity:1"
       d="m 171.09777,71.490025 c 0,0 0.12601,-2.005289 2.00225,-2.005289 1.87627,0 2.00224,1.999364 2.00224,1.999364 l 5.13903,21.383155 c 0,0 -0.16852,2.007961 -2.00224,2.00224 -1.83371,-0.0057 -2.00224,-1.999369 -2.00224,-1.999369 l -5.13904,-21.383152"
       id="path16614-0" /><path
       style="fill:#ff8080;fill-opacity:1;stroke:none;stroke-width:0.0882933;stroke-opacity:1"
       d="m 162.45946,92.391733 c -0.0269,-0.133545 -1.0451,-4.824034 -2.26252,-10.423312 -1.21742,-5.599274 -2.21348,-10.198253 -2.21348,-10.219948 0,-0.02168 0.59114,-0.03944 1.31366,-0.03944 h 1.31366 l 0.1385,0.551833 c 0.0762,0.303507 1.19436,4.962083 2.48487,10.352389 1.29051,5.390305 2.36413,9.850218 2.38583,9.910921 0.0306,0.08564 -0.31347,0.110367 -1.53602,0.110367 h -1.57547 z"
       id="path17773" /><path
       style="fill:#ff8080;fill-opacity:1;stroke:none;stroke-width:0.25;stroke-opacity:1"
       d=""
       id="path17775"
       transform="scale(0.26458333)" /><path
       style="fill:#ff8080;fill-opacity:1;stroke:none;stroke-width:0.0882933;stroke-opacity:1"
       d="m 170.07964,92.577128 c 0,-0.03157 -1.1125,-4.697644 -2.47222,-10.36904 -1.35971,-5.6714 -2.47221,-10.356203 -2.47221,-10.410676 0,-0.06036 0.12835,-0.08834 0.32866,-0.07164 l 0.32866,0.02741 2.49471,10.374462 c 1.3721,5.705954 2.49562,10.404259 2.49673,10.440682 10e-4,0.03642 -0.15692,0.06622 -0.35116,0.06622 -0.19425,0 -0.35317,-0.02582 -0.35317,-0.05741 z"
       id="path17777" /><path
       style="fill:#ffffff;fill-opacity:1;stroke:none;stroke-width:0.0624329;stroke-opacity:1"
       d="m 176.52466,71.015455 c 0.18664,-0.620134 0.64212,-1.068582 1.27106,-1.25142 0.55878,-0.162442 1.17044,-0.01084 1.64795,0.408406 0.24741,0.217233 0.54731,0.757613 0.54731,0.986197 v 0.143823 h -1.77635 -1.77634 z"
       id="path18769" /><path
       style="fill:#ffe680;fill-opacity:1;stroke:none;stroke-width:0.0624329;stroke-opacity:1"
       d="m 176.52466,71.015455 c 0.18664,-0.620134 0.64212,-1.068582 1.27106,-1.25142 0.55878,-0.162442 1.17044,-0.01084 1.64795,0.408406 0.24741,0.217233 0.54731,0.757613 0.54731,0.986197 v 0.143823 h -1.77635 -1.77634 z"
       id="path18771" /></g></svg>
